<svg xmlns="http://www.w3.org/2000/svg" class="plt-container" width="600.0" height="400.0">
  <style type="text/css">
  .plt-container {
	font-family: "Lucida Grande", sans-serif;
	cursor: crosshair;
	user-select: none;
	-webkit-user-select: none;
	-moz-user-select: none;
	-ms-user-select: none;
}
text {
	font-size: 15px;
	fill: #3d3d3d;
	
	text-rendering: optimizeLegibility;
}
.plt-data-tooltip text {
	font-size: 13px;
}
.plt-axis-tooltip text {
	font-size: 13px;
}
.plt-axis line {
	shape-rendering: crispedges;
}
.plt-plot-title {

  font-size: 19.0px;
  font-weight: bold;
}
.plt-axis .tick text {

  font-size: 13.0px;
}
.plt-axis.small-tick-font .tick text {

  font-size: 11.0px;
}
.plt-axis-title text {

  font-size: 15.0px;
}
.plt_legend .legend-title text {

  font-size: 15.0px;
}
.plt_legend text {

  font-size: 13.0px;
}

  </style>
  <g class="plt-plot">
    <rect x="0.0" y="0.0" height="400.0" width="600.0" stroke="rgb(71,71,71)" stroke-opacity="1.0" stroke-width="0.0" fill="rgb(255,255,255)" fill-opacity="0.99">
    </rect>
    <g transform="translate(23.0 10.0 ) ">
      <g transform="translate(46.550000000000004 337.89 ) " class="plt-axis">
        <line x1="23.656818181818185" y1="0.0" x2="23.656818181818185" y2="-337.89" stroke="rgb(233,233,233)" stroke-opacity="1.0" stroke-width="1.0">
        </line>
        <line x1="25.512254901960787" y1="0.0" x2="25.512254901960787" y2="-337.89" stroke="rgb(233,233,233)" stroke-opacity="1.0" stroke-width="1.0">
        </line>
        <line x1="29.223128342245992" y1="0.0" x2="29.223128342245992" y2="-337.89" stroke="rgb(233,233,233)" stroke-opacity="1.0" stroke-width="1.0">
        </line>
        <line x1="36.6448752228164" y1="0.0" x2="36.6448752228164" y2="-337.89" stroke="rgb(233,233,233)" stroke-opacity="1.0" stroke-width="1.0">
        </line>
        <line x1="51.48836898395723" y1="0.0" x2="51.48836898395723" y2="-337.89" stroke="rgb(233,233,233)" stroke-opacity="1.0" stroke-width="1.0">
        </line>
        <line x1="81.17535650623887" y1="0.0" x2="81.17535650623887" y2="-337.89" stroke="rgb(233,233,233)" stroke-opacity="1.0" stroke-width="1.0">
        </line>
        <line x1="140.54933155080215" y1="0.0" x2="140.54933155080215" y2="-337.89" stroke="rgb(233,233,233)" stroke-opacity="1.0" stroke-width="1.0">
        </line>
        <line x1="259.2972816399287" y1="0.0" x2="259.2972816399287" y2="-337.89" stroke="rgb(233,233,233)" stroke-opacity="1.0" stroke-width="1.0">
        </line>
        <line x1="496.7931818181819" y1="0.0" x2="496.7931818181819" y2="-337.89" stroke="rgb(233,233,233)" stroke-opacity="1.0" stroke-width="1.0">
        </line>
        <g class="tick" transform="translate(23.656818181818185 0.0 ) ">
          <line stroke-width="1.0" stroke="rgb(71,71,71)" stroke-opacity="1.0" x2="0.0" y2="4.0">
          </line>
          <g transform="translate(0.0 7.0 ) rotate(90.0 ) ">
            <text style="fill:#474747;" dy="0.35em">
            1
            </text>
          </g>
        </g>
        <g class="tick" transform="translate(25.512254901960787 0.0 ) ">
          <line stroke-width="1.0" stroke="rgb(71,71,71)" stroke-opacity="1.0" x2="0.0" y2="4.0">
          </line>
        </g>
        <g class="tick" transform="translate(29.223128342245992 0.0 ) ">
          <line stroke-width="1.0" stroke="rgb(71,71,71)" stroke-opacity="1.0" x2="0.0" y2="4.0">
          </line>
        </g>
        <g class="tick" transform="translate(36.6448752228164 0.0 ) ">
          <line stroke-width="1.0" stroke="rgb(71,71,71)" stroke-opacity="1.0" x2="0.0" y2="4.0">
          </line>
        </g>
        <g class="tick" transform="translate(51.48836898395723 0.0 ) ">
          <line stroke-width="1.0" stroke="rgb(71,71,71)" stroke-opacity="1.0" x2="0.0" y2="4.0">
          </line>
          <g transform="translate(0.0 7.0 ) rotate(90.0 ) ">
            <text style="fill:#474747;" dy="0.35em">
            16
            </text>
          </g>
        </g>
        <g class="tick" transform="translate(81.17535650623887 0.0 ) ">
          <line stroke-width="1.0" stroke="rgb(71,71,71)" stroke-opacity="1.0" x2="0.0" y2="4.0">
          </line>
          <g transform="translate(0.0 7.0 ) rotate(90.0 ) ">
            <text style="fill:#474747;" dy="0.35em">
            32
            </text>
          </g>
        </g>
        <g class="tick" transform="translate(140.54933155080215 0.0 ) ">
          <line stroke-width="1.0" stroke="rgb(71,71,71)" stroke-opacity="1.0" x2="0.0" y2="4.0">
          </line>
          <g transform="translate(0.0 7.0 ) rotate(90.0 ) ">
            <text style="fill:#474747;" dy="0.35em">
            64
            </text>
          </g>
        </g>
        <g class="tick" transform="translate(259.2972816399287 0.0 ) ">
          <line stroke-width="1.0" stroke="rgb(71,71,71)" stroke-opacity="1.0" x2="0.0" y2="4.0">
          </line>
          <g transform="translate(0.0 7.0 ) rotate(90.0 ) ">
            <text style="fill:#474747;" dy="0.35em">
            128
            </text>
          </g>
        </g>
        <g class="tick" transform="translate(496.7931818181819 0.0 ) ">
          <line stroke-width="1.0" stroke="rgb(71,71,71)" stroke-opacity="1.0" x2="0.0" y2="4.0">
          </line>
          <g transform="translate(0.0 7.0 ) rotate(90.0 ) ">
            <text style="fill:#474747;" dy="0.35em">
            256
            </text>
          </g>
        </g>
        <line x1="0.0" y1="0.0" x2="520.45" y2="0.0" stroke-width="1.0" stroke="rgb(71,71,71)" stroke-opacity="1.0">
        </line>
      </g>
      <g transform="translate(46.550000000000004 0.0 ) " class="plt-axis">
        <line x1="0.0" y1="317.9905865443182" x2="520.45" y2="317.9905865443182" stroke="rgb(233,233,233)" stroke-opacity="1.0" stroke-width="1.0">
        </line>
        <line x1="0.0" y1="287.71873926401486" x2="520.45" y2="287.71873926401486" stroke="rgb(233,233,233)" stroke-opacity="1.0" stroke-width="1.0">
        </line>
        <line x1="0.0" y1="257.44689198371145" x2="520.45" y2="257.44689198371145" stroke="rgb(233,233,233)" stroke-opacity="1.0" stroke-width="1.0">
        </line>
        <line x1="0.0" y1="227.17504470340813" x2="520.45" y2="227.17504470340813" stroke="rgb(233,233,233)" stroke-opacity="1.0" stroke-width="1.0">
        </line>
        <line x1="0.0" y1="196.90319742310476" x2="520.45" y2="196.90319742310476" stroke="rgb(233,233,233)" stroke-opacity="1.0" stroke-width="1.0">
        </line>
        <line x1="0.0" y1="166.6313501428014" x2="520.45" y2="166.6313501428014" stroke="rgb(233,233,233)" stroke-opacity="1.0" stroke-width="1.0">
        </line>
        <line x1="0.0" y1="136.35950286249806" x2="520.45" y2="136.35950286249806" stroke="rgb(233,233,233)" stroke-opacity="1.0" stroke-width="1.0">
        </line>
        <line x1="0.0" y1="106.08765558219471" x2="520.45" y2="106.08765558219471" stroke="rgb(233,233,233)" stroke-opacity="1.0" stroke-width="1.0">
        </line>
        <line x1="0.0" y1="75.81580830189137" x2="520.45" y2="75.81580830189137" stroke="rgb(233,233,233)" stroke-opacity="1.0" stroke-width="1.0">
        </line>
        <line x1="0.0" y1="45.54396102158802" x2="520.45" y2="45.54396102158802" stroke="rgb(233,233,233)" stroke-opacity="1.0" stroke-width="1.0">
        </line>
        <line x1="0.0" y1="15.272113741284613" x2="520.45" y2="15.272113741284613" stroke="rgb(233,233,233)" stroke-opacity="1.0" stroke-width="1.0">
        </line>
        <g class="tick" transform="translate(0.0 317.9905865443182 ) ">
          <g transform="translate(-3.0 0.0 ) ">
            <text style="fill:#474747;" text-anchor="end" dy="0.35em">
            600
            </text>
          </g>
        </g>
        <g class="tick" transform="translate(0.0 287.71873926401486 ) ">
          <g transform="translate(-3.0 0.0 ) ">
            <text style="fill:#474747;" text-anchor="end" dy="0.35em">
            800
            </text>
          </g>
        </g>
        <g class="tick" transform="translate(0.0 257.44689198371145 ) ">
          <g transform="translate(-3.0 0.0 ) ">
            <text style="fill:#474747;" text-anchor="end" dy="0.35em">
            1,000
            </text>
          </g>
        </g>
        <g class="tick" transform="translate(0.0 227.17504470340813 ) ">
          <g transform="translate(-3.0 0.0 ) ">
            <text style="fill:#474747;" text-anchor="end" dy="0.35em">
            1,200
            </text>
          </g>
        </g>
        <g class="tick" transform="translate(0.0 196.90319742310476 ) ">
          <g transform="translate(-3.0 0.0 ) ">
            <text style="fill:#474747;" text-anchor="end" dy="0.35em">
            1,400
            </text>
          </g>
        </g>
        <g class="tick" transform="translate(0.0 166.6313501428014 ) ">
          <g transform="translate(-3.0 0.0 ) ">
            <text style="fill:#474747;" text-anchor="end" dy="0.35em">
            1,600
            </text>
          </g>
        </g>
        <g class="tick" transform="translate(0.0 136.35950286249806 ) ">
          <g transform="translate(-3.0 0.0 ) ">
            <text style="fill:#474747;" text-anchor="end" dy="0.35em">
            1,800
            </text>
          </g>
        </g>
        <g class="tick" transform="translate(0.0 106.08765558219471 ) ">
          <g transform="translate(-3.0 0.0 ) ">
            <text style="fill:#474747;" text-anchor="end" dy="0.35em">
            2,000
            </text>
          </g>
        </g>
        <g class="tick" transform="translate(0.0 75.81580830189137 ) ">
          <g transform="translate(-3.0 0.0 ) ">
            <text style="fill:#474747;" text-anchor="end" dy="0.35em">
            2,200
            </text>
          </g>
        </g>
        <g class="tick" transform="translate(0.0 45.54396102158802 ) ">
          <g transform="translate(-3.0 0.0 ) ">
            <text style="fill:#474747;" text-anchor="end" dy="0.35em">
            2,400
            </text>
          </g>
        </g>
        <g class="tick" transform="translate(0.0 15.272113741284613 ) ">
          <g transform="translate(-3.0 0.0 ) ">
            <text style="fill:#474747;" text-anchor="end" dy="0.35em">
            2,600
            </text>
          </g>
        </g>
      </g>
      <g transform="translate(46.550000000000004 0.0 ) " clip-path="url(#FW3dQz)" clip-bounds-jfx="[rect (0.0, 0.0), (520.45, 337.89)]">
        <defs>
          <clipPath id="FW3dQz">
            <rect x="0.0" y="0.0" width="520.45" height="337.89">
            </rect>
          </clipPath>
        </defs>
        <g>
          <path d="M23.656818181818185 291.5683631773043 L23.656818181818185 291.5683631773043 L25.512254901960787 225.77251520829512 L27.36769162210339 183.68224176000464 L29.223128342245992 154.46319787526994 L31.0785650623886 133.0104353785303 L32.9340017825312 116.60337091968933 L34.789438502673804 103.65925987670965 L36.6448752228164 93.1946529370802 L38.50031194295901 84.56627585742615 L40.35574866310161 77.33565298501571 L42.211185383244214 71.19361403932544 L44.06662210338682 65.91590210891115 L45.92205882352942 61.33589494514956 L47.77749554367202 57.327207435212074 L49.632932263814624 53.7922371933949 L51.48836898395723 50.6544122806456 L53.34380570409983 47.85281643330649 L55.199242424242435 45.33838249680093 L57.054679144385034 43.07114500218131 L58.91011586452764 41.01822330961005 L60.76555258467024 39.152318294494194 L62.620989304812845 37.45057623232276 L64.47642602495544 35.893719335067885 L66.33186274509805 34.46537267269139 L68.18729946524064 33.151537606960574 L70.04273618538326 31.94017583276849 L71.89817290552585 30.820877837964076 L73.75360962566846 29.78459644754554 L75.60904634581107 28.823431018368638 L77.46448306595366 27.93045139648342 L79.31991978609626 27.09955334434153 L81.17535650623887 26.325339064514367 L83.03079322638148 25.603017880223433 L84.88622994652408 24.928323213765566 L86.74166666666667 24.297442825744326 L88.5971033868093 23.706959908055296 L90.45254010695189 23.153803110289914 L92.30797682709448 22.635203957947 L94.1634135472371 22.148660417561814 L96.01885026737969 21.69190559784306 L97.87428698752228 21.262880761547876 L99.7297237076649 20.859711970976946 L101.5851604278075 20.480689808855402 L103.44059714795011 20.124251712275623 L105.2960338680927 19.788966535138513 L107.1514705882353 19.473521017876237 L109.00690730837792 19.1767078950906 L110.86234402852051 18.897415414355578 L112.71778074866313 18.634618074613456 L114.57321746880572 18.387368421750352 L116.42865418894831 18.154789763195197 L118.28409090909093 17.936069683638323 L120.13952762923353 17.730454260946885 L121.99496434937612 17.537242895622796 L123.85040106951874 17.355783679196804 L125.70583778966133 17.185469237137966 L127.56127450980395 17.02573299051619 L129.41671122994654 16.87604578801603 L131.27214795008913 16.735912866193758 L133.12758467023176 16.60487110125007 L134.98302139037435 16.482486520216753 L136.83845811051694 16.36835204343157 L138.69389483065956 16.262085433606444 L140.54933155080215 16.163327429764877 L142.40476827094477 16.07174004689449 L144.26020499108736 15.987005024395273 L146.11564171122996 15.908822408352421 L147.97107843137258 15.836909254356272 L149.82651515151517 15.770998439080358 L151.6819518716578 15.710837570123715 L153.53738859180038 15.656187984768621 L155.392825311943 15.606823829306563 L157.2482620320856 15.562531211467501 L159.10369875222818 15.523107419270332 L160.9591354723708 15.488360200299269 L162.8145721925134 15.458107096022616 L164.670008912656 15.432174826310927 L166.5254456327986 15.410398719793818 L168.3808823529412 15.392622186119524 L170.23631907308382 15.37869622656774 L172.0917557932264 15.368478979799079 L173.947192513369 15.36183529983606 L175.80262923351162 15.358636363636379 L177.65806595365422 15.35875930586701 L179.51350267379684 15.362086878703963 L181.36893939393943 15.368507134679476 L183.22437611408202 15.37791313077588 L185.07981283422464 15.390202652124458 L186.93524955436723 15.405277953807342 L188.79068627450982 15.423045519399466 L190.64612299465244 15.443415834991072 L192.50155971479504 15.466303177550856 L194.35699643493766 15.491625416574834 L196.21243315508025 15.519303828061595 L198.06786987522284 15.549262919925923 L199.92330659536546 15.581430268041686 L201.77874331550805 15.615736362164569 L203.63418003565067 15.65211446104729 L205.48961675579326 15.690500456115274 L207.34505347593586 15.730832743115457 L209.20049019607848 15.773052101203234 L211.05592691622107 15.81710157896589 L212.91136363636366 15.862926386924983 L214.76680035650628 15.910473796091026 L216.62223707664887 15.959693042177207 L218.4776737967915 16.010535235106715 L220.33311051693408 16.062953273475557 L222.18854723707668 16.11690176365721 L224.0439839572193 16.172336943258756 L225.8994206773619 16.229216608655406 L227.75485739750448 16.287500046355547 L229.6102941176471 16.347147967958847 L231.4657308377897 16.40812244849218 L233.3211675579323 16.47038686791899 L235.1766042780749 16.53390585563494 L237.0320409982175 16.598645237770995 L238.88747771836012 16.6645719871417 L240.7429144385027 16.731654175684696 L242.59835115864533 16.799860929246563 L244.45378787878792 16.869162384583717 L246.3092245989305 16.939529648449138 L248.16466131907313 17.010934758652127 L250.02009803921572 17.083350646977067 L251.87553475935832 17.15675110386087 L253.73097147950094 17.231110744731723 L255.58640819964353 17.30640497791859 L257.44184491978615 17.382609974047455 L259.2972816399287 17.459702636842678 L261.15271836007133 17.537660575261725 L263.00815508021395 17.616462076889604 L264.8635918003565 17.69608608252861 L266.71902852049914 17.776512161923165 L268.57446524064176 17.85772049055538 L270.4299019607843 17.939691827463776 L272.28533868092694 18.022407494027163 L274.14077540106956 18.105849353667793 L275.9962121212121 18.189999792428353 L277.85164884135474 18.274841700375248 L279.70708556149737 18.36035845379331 L281.56252228164 18.44653389812754 L283.41795900178255 18.533352331638923 L285.27339572192517 18.620798489737865 L287.1288324420678 18.70885752996452 L288.9842691622104 18.79751501758284 L290.839705882353 18.886756911760415 L292.6951426024956 18.976569552308035 L294.5505793226382 19.066939646948697 L296.4060160427808 19.15785425909678 L298.2614527629234 19.24930079611829 L300.116889483066 19.341266998055005 L301.9723262032086 19.433740926787493 L303.8277629233512 19.526710955620786 L305.6831996434938 19.62016575926907 L307.5386363636364 19.714094304227046 L309.394073083779 19.80848583950575 L311.2495098039216 19.903329887719906 L313.10494652406425 19.99861623651111 L314.9603832442068 20.094334930289392 L316.81581996434943 20.19047626228388 L318.67125668449205 20.287030766885437 L320.5266934046346 20.38398921227025 L322.38213012477723 20.481342593293505 L324.23756684491985 20.579082124638717 L326.0930035650624 20.67719923421589 L327.94844028520504 20.7756855567946 L329.80387700534766 20.874532927863925 L331.6593137254902 20.973733377710857 L333.51475044563284 21.07327912570514 L335.37018716577546 21.173162574785636 L337.2256238859181 21.27337630613738 L339.08106060606065 21.373913074052723 L340.93649732620327 21.4747658009706 L342.7919340463459 21.57592757268236 L344.64737076648845 21.677391633703735 L346.50280748663107 21.77915138280116 L348.3582442067737 21.881200368669 L350.21368092691625 21.983532285751437 L352.0691176470589 22.08614097020262 L353.9245543672015 22.189020395981515 L355.77999108734406 22.292164671073465 L357.6354278074867 22.395568033836184 L359.4908645276293 22.499224849465293 L361.3463012477719 22.603129606572168 L363.2017379679145 22.70727691387384 L365.0571746880571 22.811661496987313 L366.9126114081997 22.91627819532738 L368.7680481283423 23.021121959100867 L370.6234848484849 23.126187846396647 L372.4789215686275 23.231471020367565 L374.3343582887701 23.336966746497467 L376.1897950089127 23.442670389956106 L378.04523172905533 23.548577413033684 L379.9006684491979 23.654683372654688 L381.7561051693405 23.76098391796728 L383.61154188948314 23.86747478800686 L385.46697860962576 23.974151809428975 L387.3224153297683 24.081010894311078 L389.17785204991094 24.1880480380201 L391.03328877005356 24.295259317143234 L392.8887254901961 24.40264088748063 L394.74416221033874 24.510188982095826 L396.59959893048136 24.61789990942509 L398.4550356506239 24.725770051441202 L400.31047237076655 24.83379586186993 L402.16590909090917 24.941973864459328 L404.02134581105173 25.05030065129762 L405.87678253119435 25.158772881180766 L407.73221925133697 25.2673872780245 L409.5876559714796 25.37614062932306 L411.44309269162216 25.485029784650976 L413.2985294117648 25.59405165420685 L415.1539661319074 25.703203207397507 L417.00940285204996 25.812481471462263 L418.8648395721926 25.921883530135176 L420.7202762923352 26.03140652234339 L422.57571301247776 26.141047640942304 L424.4311497326204 26.250804131484927 L426.286586452763 26.360673291024227 L428.14202317290557 26.470652466948422 L429.9974598930482 26.580739055847744 L431.8528966131908 26.690930502411618 L433.70833333333337 26.80122429835444 L435.563770053476 26.91161798137142 L437.4192067736186 27.02210913412091 L439.27464349376123 27.13269538323368 L441.1300802139038 27.243374398349317 L442.9855169340464 27.354143891176193 L444.84095365418904 27.46500161457709 L446.6963903743316 27.575945361677782 L448.5518270944742 27.686972964999313 L450.40726381461684 27.798082295612403 L452.2627005347594 27.90927126231253 L454.118137254902 28.02053781081753 L455.97357397504464 28.13187992298424 L457.8290106951872 28.24329561604634 L459.6844474153298 28.354782941869644 L461.53988413547245 28.466339986227354 L463.39532085561507 28.57796486809326 L465.25075757575763 28.68965573895167 L467.10619429590025 28.801410782125174 L468.9616310160429 28.913228212119236 L470.81706773618544 29.02510627398152 L472.67250445632806 29.1370432426786 L474.5279411764707 29.24903742248648 L476.38337789661324 29.361087146396642 L478.23881461675586 29.473190775536125 L480.0942513368985 29.58534669860171 L481.94968805704104 29.697553331307233 L483.80512477718366 29.809809115845212 L485.6605614973263 29.92211252035952 L487.5159982174689 30.034462038432196 L489.37143493761147 30.146856188581467 L491.2268716577541 30.259293513771752 L493.0823083778967 30.371772580934987 L494.9377450980393 30.484291980503258 L496.7931818181819 30.596850325953028 " fill="none" stroke-width="1.4" stroke="rgb(255,0,0)" stroke-opacity="1.0">
          </path>
        </g>
      </g>
      <g transform="translate(46.550000000000004 0.0 ) " clip-path="url(#PKOYg7)" clip-bounds-jfx="[rect (0.0, 0.0), (520.45, 337.89)]">
        <defs>
          <clipPath id="PKOYg7">
            <rect x="0.0" y="0.0" width="520.45" height="337.89">
            </rect>
          </clipPath>
        </defs>
        <g>
          <path d="M23.656818181818185 322.5313636363637 L23.656818181818185 322.5313636363637 L25.512254901960787 210.07145099003674 L29.223128342245992 153.61445581227096 L36.6448752228164 75.2103713562853 L51.48836898395723 54.625515205678994 L81.17535650623887 35.100173709883336 L140.54933155080215 16.48298763249676 L259.2972816399287 20.721046251739267 L496.7931818181819 27.83493036261052 " fill="none" stroke-width="2.0" stroke="rgb(17,142,216)" stroke-opacity="1.0">
          </path>
        </g>
      </g>
      <g transform="translate(46.550000000000004 0.0 ) " clip-path="url(#dW9Q5s)" clip-bounds-jfx="[rect (0.0, 0.0), (520.45, 337.89)]">
        <defs>
          <clipPath id="dW9Q5s">
            <rect x="0.0" y="0.0" width="520.45" height="337.89">
            </rect>
          </clipPath>
        </defs>
        <g>
          
          <g >
            <circle fill="#118ed8" stroke="#118ed8" stroke-opacity="0.0" stroke-width="0.0" cx="23.656818181818185" cy="322.5313636363637" r="3.3000000000000003" />
            <circle fill="#118ed8" stroke="#118ed8" stroke-opacity="0.0" stroke-width="0.0" cx="25.512254901960787" cy="210.07145099003674" r="3.3000000000000003" />
            <circle fill="#118ed8" stroke="#118ed8" stroke-opacity="0.0" stroke-width="0.0" cx="29.223128342245992" cy="153.61445581227096" r="3.3000000000000003" />
            <circle fill="#118ed8" stroke="#118ed8" stroke-opacity="0.0" stroke-width="0.0" cx="36.6448752228164" cy="75.2103713562853" r="3.3000000000000003" />
            <circle fill="#118ed8" stroke="#118ed8" stroke-opacity="0.0" stroke-width="0.0" cx="51.48836898395723" cy="54.625515205678994" r="3.3000000000000003" />
            <circle fill="#118ed8" stroke="#118ed8" stroke-opacity="0.0" stroke-width="0.0" cx="81.17535650623887" cy="35.100173709883336" r="3.3000000000000003" />
            <circle fill="#118ed8" stroke="#118ed8" stroke-opacity="0.0" stroke-width="0.0" cx="140.54933155080215" cy="16.48298763249676" r="3.3000000000000003" />
            <circle fill="#118ed8" stroke="#118ed8" stroke-opacity="0.0" stroke-width="0.0" cx="259.2972816399287" cy="20.721046251739267" r="3.3000000000000003" />
            <circle fill="#118ed8" stroke="#118ed8" stroke-opacity="0.0" stroke-width="0.0" cx="496.7931818181819" cy="27.83493036261052" r="3.3000000000000003" />
          </g>
        </g>
      </g>
    </g>
    <g class="plt-axis">
      <g transform="translate(17.0 178.945 ) rotate(-90.0 ) " class="plt-axis-title">
        <text text-anchor="middle" style="fill:#474747;">
        Throughput
        </text>
      </g>
    </g>
    <g class="plt-axis">
      <g transform="translate(329.77500000000003 381.0 ) " class="plt-axis-title">
        <text text-anchor="middle" dy="0.7em" style="fill:#474747;">
        Concurrency
        </text>
      </g>
    </g>
  </g>
</svg>