<svg xmlns="http://www.w3.org/2000/svg" class="plt-container" width="600.0" height="400.0">
  <style type="text/css">
  .plt-container {
	font-family: "Lucida Grande", sans-serif;
	cursor: crosshair;
	user-select: none;
	-webkit-user-select: none;
	-moz-user-select: none;
	-ms-user-select: none;
}
text {
	font-size: 15px;
	fill: #3d3d3d;
	
	text-rendering: optimizeLegibility;
}
.plt-data-tooltip text {
	font-size: 13px;
}
.plt-axis-tooltip text {
	font-size: 13px;
}
.plt-axis line {
	shape-rendering: crispedges;
}
.plt-plot-title {

  font-size: 19.0px;
  font-weight: bold;
}
.plt-axis .tick text {

  font-size: 13.0px;
}
.plt-axis.small-tick-font .tick text {

  font-size: 11.0px;
}
.plt-axis-title text {

  font-size: 15.0px;
}
.plt_legend .legend-title text {

  font-size: 15.0px;
}
.plt_legend text {

  font-size: 13.0px;
}

  </style>
  <g class="plt-plot">
    <rect x="0.0" y="0.0" height="400.0" width="600.0" stroke="rgb(71,71,71)" stroke-opacity="1.0" stroke-width="0.0" fill="rgb(255,255,255)" fill-opacity="0.99">
    </rect>
    <g transform="translate(23.0 10.0 ) ">
      <g transform="translate(46.550000000000004 337.89 ) " class="plt-axis">
        <line x1="23.656818181818185" y1="0.0" x2="23.656818181818185" y2="-337.89" stroke="rgb(233,233,233)" stroke-opacity="1.0" stroke-width="1.0">
        </line>
        <line x1="25.512254901960787" y1="0.0" x2="25.512254901960787" y2="-337.89" stroke="rgb(233,233,233)" stroke-opacity="1.0" stroke-width="1.0">
        </line>
        <line x1="29.223128342245992" y1="0.0" x2="29.223128342245992" y2="-337.89" stroke="rgb(233,233,233)" stroke-opacity="1.0" stroke-width="1.0">
        </line>
        <line x1="36.6448752228164" y1="0.0" x2="36.6448752228164" y2="-337.89" stroke="rgb(233,233,233)" stroke-opacity="1.0" stroke-width="1.0">
        </line>
        <line x1="51.48836898395723" y1="0.0" x2="51.48836898395723" y2="-337.89" stroke="rgb(233,233,233)" stroke-opacity="1.0" stroke-width="1.0">
        </line>
        <line x1="81.17535650623887" y1="0.0" x2="81.17535650623887" y2="-337.89" stroke="rgb(233,233,233)" stroke-opacity="1.0" stroke-width="1.0">
        </line>
        <line x1="140.54933155080215" y1="0.0" x2="140.54933155080215" y2="-337.89" stroke="rgb(233,233,233)" stroke-opacity="1.0" stroke-width="1.0">
        </line>
        <line x1="259.2972816399287" y1="0.0" x2="259.2972816399287" y2="-337.89" stroke="rgb(233,233,233)" stroke-opacity="1.0" stroke-width="1.0">
        </line>
        <line x1="496.7931818181819" y1="0.0" x2="496.7931818181819" y2="-337.89" stroke="rgb(233,233,233)" stroke-opacity="1.0" stroke-width="1.0">
        </line>
        <g class="tick" transform="translate(23.656818181818185 0.0 ) ">
          <line stroke-width="1.0" stroke="rgb(71,71,71)" stroke-opacity="1.0" x2="0.0" y2="4.0">
          </line>
          <g transform="translate(0.0 7.0 ) rotate(90.0 ) ">
            <text style="fill:#474747;" dy="0.35em">
            1
            </text>
          </g>
        </g>
        <g class="tick" transform="translate(25.512254901960787 0.0 ) ">
          <line stroke-width="1.0" stroke="rgb(71,71,71)" stroke-opacity="1.0" x2="0.0" y2="4.0">
          </line>
        </g>
        <g class="tick" transform="translate(29.223128342245992 0.0 ) ">
          <line stroke-width="1.0" stroke="rgb(71,71,71)" stroke-opacity="1.0" x2="0.0" y2="4.0">
          </line>
        </g>
        <g class="tick" transform="translate(36.6448752228164 0.0 ) ">
          <line stroke-width="1.0" stroke="rgb(71,71,71)" stroke-opacity="1.0" x2="0.0" y2="4.0">
          </line>
        </g>
        <g class="tick" transform="translate(51.48836898395723 0.0 ) ">
          <line stroke-width="1.0" stroke="rgb(71,71,71)" stroke-opacity="1.0" x2="0.0" y2="4.0">
          </line>
          <g transform="translate(0.0 7.0 ) rotate(90.0 ) ">
            <text style="fill:#474747;" dy="0.35em">
            16
            </text>
          </g>
        </g>
        <g class="tick" transform="translate(81.17535650623887 0.0 ) ">
          <line stroke-width="1.0" stroke="rgb(71,71,71)" stroke-opacity="1.0" x2="0.0" y2="4.0">
          </line>
          <g transform="translate(0.0 7.0 ) rotate(90.0 ) ">
            <text style="fill:#474747;" dy="0.35em">
            32
            </text>
          </g>
        </g>
        <g class="tick" transform="translate(140.54933155080215 0.0 ) ">
          <line stroke-width="1.0" stroke="rgb(71,71,71)" stroke-opacity="1.0" x2="0.0" y2="4.0">
          </line>
          <g transform="translate(0.0 7.0 ) rotate(90.0 ) ">
            <text style="fill:#474747;" dy="0.35em">
            64
            </text>
          </g>
        </g>
        <g class="tick" transform="translate(259.2972816399287 0.0 ) ">
          <line stroke-width="1.0" stroke="rgb(71,71,71)" stroke-opacity="1.0" x2="0.0" y2="4.0">
          </line>
          <g transform="translate(0.0 7.0 ) rotate(90.0 ) ">
            <text style="fill:#474747;" dy="0.35em">
            128
            </text>
          </g>
        </g>
        <g class="tick" transform="translate(496.7931818181819 0.0 ) ">
          <line stroke-width="1.0" stroke="rgb(71,71,71)" stroke-opacity="1.0" x2="0.0" y2="4.0">
          </line>
          <g transform="translate(0.0 7.0 ) rotate(90.0 ) ">
            <text style="fill:#474747;" dy="0.35em">
            256
            </text>
          </g>
        </g>
        <line x1="0.0" y1="0.0" x2="520.45" y2="0.0" stroke-width="1.0" stroke="rgb(71,71,71)" stroke-opacity="1.0">
        </line>
      </g>
      <g transform="translate(46.550000000000004 0.0 ) " class="plt-axis">
        <line x1="0.0" y1="287.518383973891" x2="520.45" y2="287.518383973891" stroke="rgb(233,233,233)" stroke-opacity="1.0" stroke-width="1.0">
        </line>
        <line x1="0.0" y1="240.83441109059424" x2="520.45" y2="240.83441109059424" stroke="rgb(233,233,233)" stroke-opacity="1.0" stroke-width="1.0">
        </line>
        <line x1="0.0" y1="194.15043820729744" x2="520.45" y2="194.15043820729744" stroke="rgb(233,233,233)" stroke-opacity="1.0" stroke-width="1.0">
        </line>
        <line x1="0.0" y1="147.46646532400064" x2="520.45" y2="147.46646532400064" stroke="rgb(233,233,233)" stroke-opacity="1.0" stroke-width="1.0">
        </line>
        <line x1="0.0" y1="100.78249244070383" x2="520.45" y2="100.78249244070383" stroke="rgb(233,233,233)" stroke-opacity="1.0" stroke-width="1.0">
        </line>
        <line x1="0.0" y1="54.09851955740709" x2="520.45" y2="54.09851955740709" stroke="rgb(233,233,233)" stroke-opacity="1.0" stroke-width="1.0">
        </line>
        <line x1="0.0" y1="7.414546674110284" x2="520.45" y2="7.414546674110284" stroke="rgb(233,233,233)" stroke-opacity="1.0" stroke-width="1.0">
        </line>
        <g class="tick" transform="translate(0.0 334.20235685718785 ) ">
          <g transform="translate(-3.0 0.0 ) ">
            <text style="fill:#474747;" text-anchor="end" dy="0.35em">
            400
            </text>
          </g>
        </g>
        <g class="tick" transform="translate(0.0 287.518383973891 ) ">
          <g transform="translate(-3.0 0.0 ) ">
            <text style="fill:#474747;" text-anchor="end" dy="0.35em">
            600
            </text>
          </g>
        </g>
        <g class="tick" transform="translate(0.0 240.83441109059424 ) ">
          <g transform="translate(-3.0 0.0 ) ">
            <text style="fill:#474747;" text-anchor="end" dy="0.35em">
            800
            </text>
          </g>
        </g>
        <g class="tick" transform="translate(0.0 194.15043820729744 ) ">
          <g transform="translate(-3.0 0.0 ) ">
            <text style="fill:#474747;" text-anchor="end" dy="0.35em">
            1,000
            </text>
          </g>
        </g>
        <g class="tick" transform="translate(0.0 147.46646532400064 ) ">
          <g transform="translate(-3.0 0.0 ) ">
            <text style="fill:#474747;" text-anchor="end" dy="0.35em">
            1,200
            </text>
          </g>
        </g>
        <g class="tick" transform="translate(0.0 100.78249244070383 ) ">
          <g transform="translate(-3.0 0.0 ) ">
            <text style="fill:#474747;" text-anchor="end" dy="0.35em">
            1,400
            </text>
          </g>
        </g>
        <g class="tick" transform="translate(0.0 54.09851955740709 ) ">
          <g transform="translate(-3.0 0.0 ) ">
            <text style="fill:#474747;" text-anchor="end" dy="0.35em">
            1,600
            </text>
          </g>
        </g>
        <g class="tick" transform="translate(0.0 7.414546674110284 ) ">
          <g transform="translate(-3.0 0.0 ) ">
            <text style="fill:#474747;" text-anchor="end" dy="0.35em">
            1,800
            </text>
          </g>
        </g>
      </g>
      <g transform="translate(46.550000000000004 0.0 ) " clip-path="url(#7aQO73)" clip-bounds-jfx="[rect (0.0, 0.0), (520.45, 337.89)]">
        <defs>
          <clipPath id="7aQO73">
            <rect x="0.0" y="0.0" width="520.45" height="337.89">
            </rect>
          </clipPath>
        </defs>
        <g>
          <path d="M23.656818181818185 302.8447709364238 L23.656818181818185 302.8447709364238 L25.512254901960787 230.2312810404704 L27.36769162210339 182.88897495811477 L29.223128342245992 149.70786747855004 L31.0785650623886 125.25719696453149 L32.9340017825312 106.56774243884672 L34.789438502673804 91.87913369346563 L36.6448752228164 80.08149163926726 L38.50031194295901 70.4403796068317 L40.35574866310161 62.450432192639255 L42.211185383244214 55.752508561561115 L44.06662210338682 50.08437556364004 L45.92205882352942 45.250089171296565 L47.77749554367202 41.10029485623977 L49.632932263814624 37.51915896843741 L51.48836898395723 34.41546540861373 L53.34380570409983 31.716406874270433 L55.199242424242435 29.36316494113038 L57.054679144385034 27.307705241809288 L58.91011586452764 25.510415094486632 L60.76555258467024 23.938336062374844 L62.620989304812845 22.56382368921487 L64.47642602495544 21.363518622609433 L66.33186274509805 20.317547868409406 L68.18729946524064 19.408898281586175 L70.04273618538326 18.622920466887024 L71.89817290552585 17.94693248180033 L73.75360962566846 17.36990067789145 L75.60904634581107 16.882180713712103 L77.46448306595366 16.475305907573045 L79.31991978609626 16.141813133313974 L81.17535650623887 15.875098712742272 L83.03079322638148 15.669298443559512 L84.88622994652408 15.519187174906904 L86.74166666666667 15.420094312987771 L88.5971033868093 15.367832384634312 L90.45254010695189 15.358636363636379 L92.30797682709448 15.389111914407124 L94.1634135472371 15.456191060542494 L96.01885026737969 15.557094064631258 L97.87428698752228 15.689296527211809 L99.7297237076649 15.85050088983877 L101.5851604278075 16.038611669505713 L103.44059714795011 16.251713866612533 L105.2960338680927 16.48805408197279 L107.1514705882353 16.74602395446601 L109.00690730837792 17.024145593301853 L110.86234402852051 17.321058730182244 L112.71778074866313 17.6355093590509 L114.57321746880572 17.966339666306737 L116.42865418894831 18.312479083650715 L118.28409090909093 18.6729363202291 L120.13952762923353 19.046792251275747 L121.99496434937612 19.43319355774298 L123.85040106951874 19.831347026009496 L125.70583778966133 20.24051442911633 L127.56127450980395 20.66000792148577 L129.41671122994654 21.089185888028737 L131.27214795008913 21.527449196191697 L133.12758467023176 21.974237806045323 L134.98302139037435 22.429027699147127 L136.83845811051694 22.891328091753394 L138.69389483065956 23.360678902140194 L140.54933155080215 23.836648445416756 L142.40476827094477 24.318831332347372 L144.26020499108736 24.80684655143557 L146.11564171122996 25.300335715894448 L147.97107843137258 25.798961459206737 L149.82651515151517 26.302405964792854 L151.6819518716578 26.810369616892558 L153.53738859180038 27.322569761171053 L155.392825311943 27.838739564777825 L157.2482620320856 28.358626966679708 L159.10369875222818 28.88199371004191 L160.9591354723708 29.408614449273955 L162.8145721925134 29.93827592511161 L164.670008912656 30.47077620176617 L166.5254456327986 31.005923960765358 L168.3808823529412 31.543537846636184 L170.23631907308382 32.083445860045174 L172.0917557932264 32.62548479443495 L173.947192513369 33.16949971256503 L175.80262923351162 33.71534345970224 L177.65806595365422 34.26287621050602 L179.51350267379684 34.81196504692008 L181.36893939393943 35.36248356462977 L183.22437611408202 35.91431150585447 L185.07981283422464 36.46733441644835 L186.93524955436723 37.021443325453106 L188.79068627450982 37.57653444541006 L190.64612299465244 38.13250889188345 L192.50155971479504 38.68927242077342 L194.35699643493766 39.24673518212097 L196.21243315508025 39.804811489211545 L198.06786987522284 40.363419601881105 L199.92330659536546 40.922481523019485 L201.77874331550805 41.48192280734389 L203.63418003565067 42.04167238159124 L205.48961675579326 42.601662375343494 L207.34505347593586 43.16182796176088 L209.20049019607848 43.72210720755646 L211.05592691622107 44.28244093159168 L212.91136363636366 44.84277257152581 L214.76680035650628 45.40304805798763 L216.62223707664887 45.96321569578248 L218.4776737967915 46.523226051682286 L220.33311051693408 47.08303184837615 L222.18854723707668 47.64258786419509 L224.0439839572193 48.20185083824657 L225.8994206773619 48.760779380624115 L227.75485739750448 49.3193338873798 L229.6102941176471 49.877476459967454 L231.4657308377897 50.435170828887635 L233.3211675579323 50.99238228128149 L235.1766042780749 51.54907759223852 L237.0320409982175 52.10522495959981 L238.88747771836012 52.66079394205104 L240.7429144385027 53.2157554003158 L242.59835115864533 53.770081441269326 L244.45378787878792 54.323745364807735 L246.3092245989305 54.87672161331437 L248.16466131907313 55.42898572357939 L250.02009803921572 55.98051428103486 L251.87553475935832 56.531284876177665 L253.73097147950094 57.08127606305948 L255.58640819964353 57.63046731973213 L257.44184491978615 58.178839010542674 L259.2972816399287 58.726372350177144 L261.15271836007133 59.273049369362866 L263.00815508021395 59.81885288213965 L264.8635918003565 60.363766454617235 L266.71902852049914 60.9077743751439 L268.57446524064176 61.45086162581009 L270.4299019607843 61.99301385522148 L272.28533868092694 62.534217352475764 L274.14077540106956 63.074459022280735 L275.9962121212121 63.61372636115868 L277.85164884135474 64.15200743468176 L279.70708556149737 64.68929085568703 L281.56252228164 65.22556576342407 L283.41795900178255 65.76082180358742 L285.27339572192517 66.29504910919388 L287.1288324420678 66.82823828226105 L288.9842691622104 67.36038037625133 L290.839705882353 67.89146687924193 L292.6951426024956 68.42148969779038 L294.5505793226382 68.95044114145901 L296.4060160427808 69.47831390797074 L298.2614527629234 70.00510106896468 L300.116889483066 70.5307960563253 L301.9723262032086 71.05539264905889 L303.8277629233512 71.57888496069091 L305.6831996434938 72.10126742716295 L307.5386363636364 72.62253479520467 L309.394073083779 73.14268211116143 L311.2495098039216 73.6617047102556 L313.10494652406425 74.17959820626425 L314.9603832442068 74.69635848159254 L316.81581996434943 75.21198167772911 L318.67125668449205 75.72646418606274 L320.5266934046346 76.23980263904815 L322.38213012477723 76.75199390170428 L324.23756684491985 77.26303506343078 L326.0930035650624 77.77292343013085 L327.94844028520504 78.2816565166251 L329.80387700534766 78.78923203934647 L331.6593137254902 79.29564790930306 L333.51475044563284 79.80090222529867 L335.37018716577546 80.30499326739977 L337.2256238859181 80.80791949063968 L339.08106060606065 81.30967951894877 L340.93649732620327 81.81027213930344 L342.7919340463459 82.30969629608387 L344.64737076648845 82.80795108563183 L346.50280748663107 83.30503575100232 L348.3582442067737 83.80094967689917 L350.21368092691625 84.29569238478865 L352.0691176470589 84.78926352818462 L353.9245543672015 85.28166288809638 L355.77999108734406 85.77289036863567 L357.6354278074867 86.26294599277412 L359.4908645276293 86.75182989824742 L361.3463012477719 87.23954233359888 L363.2017379679145 87.7260836543586 L365.0571746880571 88.21145431935207 L366.9126114081997 88.69565488713368 L368.7680481283423 89.1786860125402 L370.6234848484849 89.6605484433606 L372.4789215686275 90.14124301711672 L374.3343582887701 90.6207706579512 L376.1897950089127 91.0991323736194 L378.04523172905533 91.57632925257991 L379.9006684491979 92.05236246118176 L381.7561051693405 92.5272332409441 L383.61154188948314 93.00094290592415 L385.46697860962576 93.47349284017207 L387.3224153297683 93.94488449526784 L389.17785204991094 94.41511938793832 L391.03328877005356 94.88419909775206 L392.8887254901961 95.35212526488664 L394.74416221033874 95.81889958796984 L396.59959893048136 96.28452382198833 L398.4550356506239 96.74899977626382 L400.31047237076655 97.21232931249381 L402.16590909090917 97.67451434285437 L404.02134581105173 98.13555682816275 L405.87678253119435 98.59545877609844 L407.73221925133697 99.05422223947994 L409.5876559714796 99.51184931459579 L411.44309269162216 99.96834213958829 L413.2985294117648 100.42370289288647 L415.1539661319074 100.87793379168988 L417.00940285204996 101.33103709049755 L418.8648395721926 101.78301507968405 L420.7202762923352 102.23387008411885 L422.57571301247776 102.68360446182862 L424.4311497326204 103.13222060270078 L426.286586452763 103.57972092722684 L428.14202317290557 104.02610788528449 L429.9974598930482 104.4713839549566 L431.8528966131908 104.91555164138697 L433.70833333333337 105.35861347567032 L435.563770053476 105.80057201377679 L437.4192067736186 106.24142983550848 L439.27464349376123 106.6811895434883 L441.1300802139038 107.11985376217893 L442.9855169340464 107.55742513693207 L444.84095365418904 107.99390633306581 L446.6963903743316 108.42930003497037 L448.5518270944742 108.86360894524046 L450.40726381461684 109.29683578383384 L452.2627005347594 109.72898328725552 L454.118137254902 110.16005420776577 L455.97357397504464 110.59005131261279 L457.8290106951872 111.01897738328756 L459.6844474153298 111.44683521480147 L461.53988413547245 111.87362761498565 L463.39532085561507 112.2993574038108 L465.25075757575763 112.72402741272765 L467.10619429590025 113.14764048402742 L468.9616310160429 113.57019947022059 L470.81706773618544 113.99170723343497 L472.67250445632806 114.41216664483142 L474.5279411764707 114.83158058403677 L476.38337789661324 115.24995193859417 L478.23881461675586 115.66728360342904 L480.0942513368985 116.08357848033205 L481.94968805704104 116.49883947745639 L483.80512477718366 116.9130695088308 L485.6605614973263 117.32627149388674 L487.5159982174689 117.73844835699941 L489.37143493761147 118.14960302704378 L491.2268716577541 118.55973843696182 L493.0823083778967 118.96885752334435 L494.9377450980393 119.37696322602471 L496.7931818181819 119.78405848768449 " fill="none" stroke-width="1.4" stroke="rgb(255,0,0)" stroke-opacity="1.0">
          </path>
        </g>
      </g>
      <g transform="translate(46.550000000000004 0.0 ) " clip-path="url(#zKGkHX)" clip-bounds-jfx="[rect (0.0, 0.0), (520.45, 337.89)]">
        <defs>
          <clipPath id="zKGkHX">
            <rect x="0.0" y="0.0" width="520.45" height="337.89">
            </rect>
          </clipPath>
        </defs>
        <g>
          <path d="M23.656818181818185 322.5313636363636 L23.656818181818185 322.5313636363636 L25.512254901960787 227.52947881885464 L29.223128342245992 164.039275697571 L36.6448752228164 46.16224416724663 L51.48836898395723 20.252639217016906 L81.17535650623887 28.188914607177367 L140.54933155080215 44.06146538749823 L259.2972816399287 65.06925318498179 L496.7931818181819 106.38456918669948 " fill="none" stroke-width="2.0" stroke="rgb(17,142,216)" stroke-opacity="1.0">
          </path>
        </g>
      </g>
      <g transform="translate(46.550000000000004 0.0 ) " clip-path="url(#GGzqSf)" clip-bounds-jfx="[rect (0.0, 0.0), (520.45, 337.89)]">
        <defs>
          <clipPath id="GGzqSf">
            <rect x="0.0" y="0.0" width="520.45" height="337.89">
            </rect>
          </clipPath>
        </defs>
        <g>
          
          <g >
            <circle fill="#118ed8" stroke="#118ed8" stroke-opacity="0.0" stroke-width="0.0" cx="23.656818181818185" cy="322.5313636363636" r="3.3000000000000003" />
            <circle fill="#118ed8" stroke="#118ed8" stroke-opacity="0.0" stroke-width="0.0" cx="25.512254901960787" cy="227.52947881885464" r="3.3000000000000003" />
            <circle fill="#118ed8" stroke="#118ed8" stroke-opacity="0.0" stroke-width="0.0" cx="29.223128342245992" cy="164.039275697571" r="3.3000000000000003" />
            <circle fill="#118ed8" stroke="#118ed8" stroke-opacity="0.0" stroke-width="0.0" cx="36.6448752228164" cy="46.16224416724663" r="3.3000000000000003" />
            <circle fill="#118ed8" stroke="#118ed8" stroke-opacity="0.0" stroke-width="0.0" cx="51.48836898395723" cy="20.252639217016906" r="3.3000000000000003" />
            <circle fill="#118ed8" stroke="#118ed8" stroke-opacity="0.0" stroke-width="0.0" cx="81.17535650623887" cy="28.188914607177367" r="3.3000000000000003" />
            <circle fill="#118ed8" stroke="#118ed8" stroke-opacity="0.0" stroke-width="0.0" cx="140.54933155080215" cy="44.06146538749823" r="3.3000000000000003" />
            <circle fill="#118ed8" stroke="#118ed8" stroke-opacity="0.0" stroke-width="0.0" cx="259.2972816399287" cy="65.06925318498179" r="3.3000000000000003" />
            <circle fill="#118ed8" stroke="#118ed8" stroke-opacity="0.0" stroke-width="0.0" cx="496.7931818181819" cy="106.38456918669948" r="3.3000000000000003" />
          </g>
        </g>
      </g>
    </g>
    <g class="plt-axis">
      <g transform="translate(17.0 178.945 ) rotate(-90.0 ) " class="plt-axis-title">
        <text text-anchor="middle" style="fill:#474747;">
        Throughput
        </text>
      </g>
    </g>
    <g class="plt-axis">
      <g transform="translate(329.77500000000003 381.0 ) " class="plt-axis-title">
        <text text-anchor="middle" dy="0.7em" style="fill:#474747;">
        Concurrency
        </text>
      </g>
    </g>
  </g>
</svg>