<svg xmlns="http://www.w3.org/2000/svg" class="plt-container" width="600.0" height="400.0">
  <style type="text/css">
  .plt-container {
	font-family: "Lucida Grande", sans-serif;
	cursor: crosshair;
	user-select: none;
	-webkit-user-select: none;
	-moz-user-select: none;
	-ms-user-select: none;
}
text {
	font-size: 15px;
	fill: #3d3d3d;
	
	text-rendering: optimizeLegibility;
}
.plt-data-tooltip text {
	font-size: 13px;
}
.plt-axis-tooltip text {
	font-size: 13px;
}
.plt-axis line {
	shape-rendering: crispedges;
}
.plt-plot-title {

  font-size: 19.0px;
  font-weight: bold;
}
.plt-axis .tick text {

  font-size: 13.0px;
}
.plt-axis.small-tick-font .tick text {

  font-size: 11.0px;
}
.plt-axis-title text {

  font-size: 15.0px;
}
.plt_legend .legend-title text {

  font-size: 15.0px;
}
.plt_legend text {

  font-size: 13.0px;
}

  </style>
  <g class="plt-plot">
    <rect x="0.0" y="0.0" height="400.0" width="600.0" stroke="rgb(71,71,71)" stroke-opacity="1.0" stroke-width="0.0" fill="rgb(255,255,255)" fill-opacity="0.99">
    </rect>
    <g transform="translate(23.0 10.0 ) ">
      <g transform="translate(46.550000000000004 337.89 ) " class="plt-axis">
        <line x1="23.656818181818185" y1="0.0" x2="23.656818181818185" y2="-337.89" stroke="rgb(233,233,233)" stroke-opacity="1.0" stroke-width="1.0">
        </line>
        <line x1="25.512254901960787" y1="0.0" x2="25.512254901960787" y2="-337.89" stroke="rgb(233,233,233)" stroke-opacity="1.0" stroke-width="1.0">
        </line>
        <line x1="29.223128342245992" y1="0.0" x2="29.223128342245992" y2="-337.89" stroke="rgb(233,233,233)" stroke-opacity="1.0" stroke-width="1.0">
        </line>
        <line x1="36.6448752228164" y1="0.0" x2="36.6448752228164" y2="-337.89" stroke="rgb(233,233,233)" stroke-opacity="1.0" stroke-width="1.0">
        </line>
        <line x1="51.48836898395723" y1="0.0" x2="51.48836898395723" y2="-337.89" stroke="rgb(233,233,233)" stroke-opacity="1.0" stroke-width="1.0">
        </line>
        <line x1="81.17535650623887" y1="0.0" x2="81.17535650623887" y2="-337.89" stroke="rgb(233,233,233)" stroke-opacity="1.0" stroke-width="1.0">
        </line>
        <line x1="140.54933155080215" y1="0.0" x2="140.54933155080215" y2="-337.89" stroke="rgb(233,233,233)" stroke-opacity="1.0" stroke-width="1.0">
        </line>
        <line x1="259.2972816399287" y1="0.0" x2="259.2972816399287" y2="-337.89" stroke="rgb(233,233,233)" stroke-opacity="1.0" stroke-width="1.0">
        </line>
        <line x1="496.7931818181819" y1="0.0" x2="496.7931818181819" y2="-337.89" stroke="rgb(233,233,233)" stroke-opacity="1.0" stroke-width="1.0">
        </line>
        <g class="tick" transform="translate(23.656818181818185 0.0 ) ">
          <line stroke-width="1.0" stroke="rgb(71,71,71)" stroke-opacity="1.0" x2="0.0" y2="4.0">
          </line>
          <g transform="translate(0.0 7.0 ) rotate(90.0 ) ">
            <text style="fill:#474747;" dy="0.35em">
            1
            </text>
          </g>
        </g>
        <g class="tick" transform="translate(25.512254901960787 0.0 ) ">
          <line stroke-width="1.0" stroke="rgb(71,71,71)" stroke-opacity="1.0" x2="0.0" y2="4.0">
          </line>
        </g>
        <g class="tick" transform="translate(29.223128342245992 0.0 ) ">
          <line stroke-width="1.0" stroke="rgb(71,71,71)" stroke-opacity="1.0" x2="0.0" y2="4.0">
          </line>
        </g>
        <g class="tick" transform="translate(36.6448752228164 0.0 ) ">
          <line stroke-width="1.0" stroke="rgb(71,71,71)" stroke-opacity="1.0" x2="0.0" y2="4.0">
          </line>
        </g>
        <g class="tick" transform="translate(51.48836898395723 0.0 ) ">
          <line stroke-width="1.0" stroke="rgb(71,71,71)" stroke-opacity="1.0" x2="0.0" y2="4.0">
          </line>
          <g transform="translate(0.0 7.0 ) rotate(90.0 ) ">
            <text style="fill:#474747;" dy="0.35em">
            16
            </text>
          </g>
        </g>
        <g class="tick" transform="translate(81.17535650623887 0.0 ) ">
          <line stroke-width="1.0" stroke="rgb(71,71,71)" stroke-opacity="1.0" x2="0.0" y2="4.0">
          </line>
          <g transform="translate(0.0 7.0 ) rotate(90.0 ) ">
            <text style="fill:#474747;" dy="0.35em">
            32
            </text>
          </g>
        </g>
        <g class="tick" transform="translate(140.54933155080215 0.0 ) ">
          <line stroke-width="1.0" stroke="rgb(71,71,71)" stroke-opacity="1.0" x2="0.0" y2="4.0">
          </line>
          <g transform="translate(0.0 7.0 ) rotate(90.0 ) ">
            <text style="fill:#474747;" dy="0.35em">
            64
            </text>
          </g>
        </g>
        <g class="tick" transform="translate(259.2972816399287 0.0 ) ">
          <line stroke-width="1.0" stroke="rgb(71,71,71)" stroke-opacity="1.0" x2="0.0" y2="4.0">
          </line>
          <g transform="translate(0.0 7.0 ) rotate(90.0 ) ">
            <text style="fill:#474747;" dy="0.35em">
            128
            </text>
          </g>
        </g>
        <g class="tick" transform="translate(496.7931818181819 0.0 ) ">
          <line stroke-width="1.0" stroke="rgb(71,71,71)" stroke-opacity="1.0" x2="0.0" y2="4.0">
          </line>
          <g transform="translate(0.0 7.0 ) rotate(90.0 ) ">
            <text style="fill:#474747;" dy="0.35em">
            256
            </text>
          </g>
        </g>
        <line x1="0.0" y1="0.0" x2="520.45" y2="0.0" stroke-width="1.0" stroke="rgb(71,71,71)" stroke-opacity="1.0">
        </line>
      </g>
      <g transform="translate(46.550000000000004 0.0 ) " class="plt-axis">
        <line x1="0.0" y1="311.963304278594" x2="520.45" y2="311.963304278594" stroke="rgb(233,233,233)" stroke-opacity="1.0" stroke-width="1.0">
        </line>
        <line x1="0.0" y1="276.73643975269533" x2="520.45" y2="276.73643975269533" stroke="rgb(233,233,233)" stroke-opacity="1.0" stroke-width="1.0">
        </line>
        <line x1="0.0" y1="241.50957522679664" x2="520.45" y2="241.50957522679664" stroke="rgb(233,233,233)" stroke-opacity="1.0" stroke-width="1.0">
        </line>
        <line x1="0.0" y1="206.28271070089798" x2="520.45" y2="206.28271070089798" stroke="rgb(233,233,233)" stroke-opacity="1.0" stroke-width="1.0">
        </line>
        <line x1="0.0" y1="171.0558461749993" x2="520.45" y2="171.0558461749993" stroke="rgb(233,233,233)" stroke-opacity="1.0" stroke-width="1.0">
        </line>
        <line x1="0.0" y1="135.82898164910063" x2="520.45" y2="135.82898164910063" stroke="rgb(233,233,233)" stroke-opacity="1.0" stroke-width="1.0">
        </line>
        <line x1="0.0" y1="100.60211712320194" x2="520.45" y2="100.60211712320194" stroke="rgb(233,233,233)" stroke-opacity="1.0" stroke-width="1.0">
        </line>
        <line x1="0.0" y1="65.37525259730324" x2="520.45" y2="65.37525259730324" stroke="rgb(233,233,233)" stroke-opacity="1.0" stroke-width="1.0">
        </line>
        <line x1="0.0" y1="30.14838807140461" x2="520.45" y2="30.14838807140461" stroke="rgb(233,233,233)" stroke-opacity="1.0" stroke-width="1.0">
        </line>
        <g class="tick" transform="translate(0.0 311.963304278594 ) ">
          <g transform="translate(-3.0 0.0 ) ">
            <text style="fill:#474747;" text-anchor="end" dy="0.35em">
            600
            </text>
          </g>
        </g>
        <g class="tick" transform="translate(0.0 276.73643975269533 ) ">
          <g transform="translate(-3.0 0.0 ) ">
            <text style="fill:#474747;" text-anchor="end" dy="0.35em">
            800
            </text>
          </g>
        </g>
        <g class="tick" transform="translate(0.0 241.50957522679664 ) ">
          <g transform="translate(-3.0 0.0 ) ">
            <text style="fill:#474747;" text-anchor="end" dy="0.35em">
            1,000
            </text>
          </g>
        </g>
        <g class="tick" transform="translate(0.0 206.28271070089798 ) ">
          <g transform="translate(-3.0 0.0 ) ">
            <text style="fill:#474747;" text-anchor="end" dy="0.35em">
            1,200
            </text>
          </g>
        </g>
        <g class="tick" transform="translate(0.0 171.0558461749993 ) ">
          <g transform="translate(-3.0 0.0 ) ">
            <text style="fill:#474747;" text-anchor="end" dy="0.35em">
            1,400
            </text>
          </g>
        </g>
        <g class="tick" transform="translate(0.0 135.82898164910063 ) ">
          <g transform="translate(-3.0 0.0 ) ">
            <text style="fill:#474747;" text-anchor="end" dy="0.35em">
            1,600
            </text>
          </g>
        </g>
        <g class="tick" transform="translate(0.0 100.60211712320194 ) ">
          <g transform="translate(-3.0 0.0 ) ">
            <text style="fill:#474747;" text-anchor="end" dy="0.35em">
            1,800
            </text>
          </g>
        </g>
        <g class="tick" transform="translate(0.0 65.37525259730324 ) ">
          <g transform="translate(-3.0 0.0 ) ">
            <text style="fill:#474747;" text-anchor="end" dy="0.35em">
            2,000
            </text>
          </g>
        </g>
        <g class="tick" transform="translate(0.0 30.14838807140461 ) ">
          <g transform="translate(-3.0 0.0 ) ">
            <text style="fill:#474747;" text-anchor="end" dy="0.35em">
            2,200
            </text>
          </g>
        </g>
      </g>
      <g transform="translate(46.550000000000004 0.0 ) " clip-path="url(#KM5G61)" clip-bounds-jfx="[rect (0.0, 0.0), (520.45, 337.89)]">
        <defs>
          <clipPath id="KM5G61">
            <rect x="0.0" y="0.0" width="520.45" height="337.89">
            </rect>
          </clipPath>
        </defs>
        <g>
          <path d="M23.656818181818185 291.9676624793493 L23.656818181818185 291.9676624793493 L25.512254901960787 223.9206220980699 L27.36769162210339 181.28120416574484 L29.223128342245992 152.07517715425877 L31.0785650623886 130.83110432303346 L32.9340017825312 114.69371165685482 L34.789438502673804 102.02719931507681 L36.6448752228164 91.82700976787828 L38.50031194295901 83.44212894425351 L40.35574866310161 76.43213169761196 L42.211185383244214 70.48840155373614 L44.06662210338682 65.38825418782909 L45.92205882352942 60.96697489777034 L47.77749554367202 57.10010777932115 L49.632932263814624 53.691864183373696 L51.48836898395723 50.6673181058805 L53.34380570409983 47.96701966358279 L55.199242424242435 45.543195518320715 L57.054679144385034 43.35701631859513 L58.91011586452764 41.37659720249559 L60.76555258467024 39.57551174719424 L62.620989304812845 37.93167185674457 L64.47642602495544 36.42647260224152 L66.33186274509805 35.04413167013655 L68.18729946524064 33.771173638785285 L70.04273618538326 32.59602334282107 L71.89817290552585 31.508682321633103 L73.75360962566846 30.500469199058045 L75.60904634581107 29.563809726471504 L77.46448306595366 28.69206574812364 L79.31991978609626 27.879394922950723 L81.17535650623887 27.120634938011165 L83.03079322638148 26.41120736585583 L84.88622994652408 25.747037384580494 L86.74166666666667 25.124486388874743 L88.5971033868093 24.540295140036505 L90.45254010695189 23.991535580913876 L92.30797682709448 23.475569813143068 L94.1634135472371 22.990015024659613 L96.01885026737969 22.532713384328986 L97.87428698752228 22.101706101912043 L99.7297237076649 21.695210996159346 L101.5851604278075 21.311603029723017 L103.44059714795011 20.94939736297397 L105.2960338680927 20.607234554463957 L107.1514705882353 20.283867597345875 L109.00690730837792 19.97815053141585 L110.86234402852051 19.68902841179124 L112.71778074866313 19.415528449342844 L114.57321746880572 19.156752166250214 L116.42865418894831 18.911868433521704 L118.28409090909093 18.680107276922627 L120.13952762923353 18.460754354157018 L121.99496434937612 18.253146019943586 L123.85040106951874 18.056664907244738 L125.70583778966133 17.870735962748938 L127.56127450980395 17.69482288303891 L129.41671122994654 17.52842490498756 L131.27214795008913 17.371073909969084 L133.12758467023176 17.222331806667 L134.98302139037435 17.081788161699308 L136.83845811051694 16.949058051111592 L138.69389483065956 16.8237801090836 L140.54933155080215 16.705614753050327 L142.40476827094477 16.594242566904143 L144.26020499108736 16.489362826092076 L146.11564171122996 16.390692150291102 L147.97107843137258 16.297963270966648 L149.82651515151517 16.210923902549098 L151.6819518716578 16.129335707202642 L153.53738859180038 16.05297334425802 L155.392825311943 15.981623596339716 L157.2482620320856 15.915084565062784 L159.10369875222818 15.853164929924901 L160.9591354723708 15.795683264672675 L162.8145721925134 15.742467406010462 L164.670008912656 15.69335387003531 L166.5254456327986 15.648187312238292 L168.3808823529412 15.606820027328183 L170.23631907308382 15.569111485488975 L172.0917557932264 15.534927902015909 L173.947192513369 15.504141837556233 L175.80262923351162 15.476631826449989 L177.65806595365422 15.452282030888682 L179.51350267379684 15.430981918826319 L181.36893939393943 15.41262596376032 L183.22437611408202 15.397113364667973 L185.07981283422464 15.384347784540068 L186.93524955436723 15.374237106083001 L188.79068627450982 15.36669320329247 L190.64612299465244 15.361631727704662 L192.50155971479504 15.358971908239596 L194.35699643493766 15.358636363636379 L196.21243315508025 15.36055092656818 L198.06786987522284 15.364644478594016 L199.92330659536546 15.370848795179597 L201.77874331550805 15.379098400075293 L203.63418003565067 15.389330428400001 L205.48961675579326 15.401484497829756 L207.34505347593586 15.41550258733497 L209.20049019607848 15.4313289229583 L211.05592691622107 15.448909870158218 L212.91136363636366 15.46819383228285 L214.76680035650628 15.489131154771655 L216.62223707664887 15.511674034709813 L218.4776737967915 15.535776435390915 L220.33311051693408 15.561394005567081 L222.18854723707668 15.588484003088183 L224.0439839572193 15.61700522265619 L225.8994206773619 15.646917927436903 L227.75485739750448 15.678183784290127 L229.6102941176471 15.710765802399692 L231.4657308377897 15.744628275094271 L233.3211675579323 15.77973672466777 L235.1766042780749 15.816057850021082 L237.0320409982175 15.853559476957798 L238.88747771836012 15.892210510978373 L240.7429144385027 15.931980892427475 L242.59835115864533 15.972841553858757 L244.45378787878792 16.014764379489066 L246.3092245989305 16.057722166627457 L248.16466131907313 16.101688588961395 L250.02009803921572 16.14663816160339 L251.87553475935832 16.192546207794464 L253.73097147950094 16.239388827178857 L255.58640819964353 16.28714286555936 L257.44184491978615 16.335785886056613 L259.2972816399287 16.38529614159563 L261.15271836007133 16.43565254864825 L263.00815508021395 16.486834662167666 L264.8635918003565 16.538822651647934 L266.71902852049914 16.591597278254596 L268.57446524064176 16.64513987296891 L270.4299019607843 16.699432315692093 L272.28533868092694 16.75445701526411 L274.14077540106956 16.81019689034804 L275.9962121212121 16.86663535113729 L277.85164884135474 16.923756281845044 L279.70708556149737 16.98154402393709 L281.56252228164 17.03998336007089 L283.41795900178255 17.099059498706936 L285.27339572192517 17.158758059360252 L287.1288324420678 17.219065058459194 L288.9842691622104 17.27996689578572 L290.839705882353 17.34145034146661 L292.6951426024956 17.403502523491227 L294.5505793226382 17.466110915730212 L296.4060160427808 17.529263326432897 L298.2614527629234 17.592947887180514 L300.116889483066 17.657153042273762 L301.9723262032086 17.721867538536515 L303.8277629233512 17.787080415515447 L305.6831996434938 17.852780996057618 L307.5386363636364 17.91895887725076 L309.394073083779 17.985603921707707 L311.2495098039216 18.052706249182222 L313.10494652406425 18.120256228499386 L314.9603832442068 18.188244469788913 L316.81581996434943 18.25666181700649 L318.67125668449205 18.325499340731824 L320.5266934046346 18.39474833123137 L322.38213012477723 18.4644002917737 L324.23756684491985 18.534446932188075 L326.0930035650624 18.604880162655036 L327.94844028520504 18.675692087719597 L329.80387700534766 18.74687500051772 L331.6593137254902 18.818421377207642 L333.51475044563284 18.890323871596593 L335.37018716577546 18.962575309956947 L337.2256238859181 19.035168686021223 L339.08106060606065 19.10809715615187 L340.93649732620327 19.181354034675735 L342.7919340463459 19.254932789379836 L344.64737076648845 19.328827037158533 L346.50280748663107 19.403030539809492 L348.3582442067737 19.477537199970243 L350.21368092691625 19.55234105719137 L352.0691176470589 19.62743628413881 L353.9245543672015 19.702817182923866 L355.77999108734406 19.7784781815526 L357.6354278074867 19.854413830491467 L359.4908645276293 19.930618799345325 L361.3463012477719 20.007087873642433 L363.2017379679145 20.08381595172358 L365.0571746880571 20.160798041729777 L366.9126114081997 20.23802925868705 L368.7680481283423 20.31550482168302 L370.6234848484849 20.39322005113229 L372.4789215686275 20.471170366128376 L374.3343582887701 20.54935128187708 L376.1897950089127 20.627758407210536 L378.04523172905533 20.706387442177345 L379.9006684491979 20.785234175707274 L381.7561051693405 20.864294483346555 L383.61154188948314 20.94356432506322 L385.46697860962576 21.023039743116954 L387.3224153297683 21.10271685999544 L389.17785204991094 21.182591876410243 L391.03328877005356 21.262661069354067 L392.8887254901961 21.34292079021452 L394.74416221033874 21.423367462944384 L396.59959893048136 21.503997582284853 L398.4550356506239 21.584807712041084 L400.31047237076655 21.665794483408206 L402.16590909090917 21.74695459334481 L404.02134581105173 21.828284802994233 L405.87678253119435 21.909781936150807 L407.73221925133697 21.991442877769032 L409.5876559714796 22.07326457251702 L411.44309269162216 22.155244023368653 L413.2985294117648 22.237378290236222 L415.1539661319074 22.319664488642218 L417.00940285204996 22.402099788426312 L418.8648395721926 22.484681412489977 L420.7202762923352 22.56740663557423 L422.57571301247776 22.650272783072296 L424.4311497326204 22.733277229874147 L426.286586452763 22.816417399241857 L428.14202317290557 22.89969076171684 L429.9974598930482 22.98309483405518 L431.8528966131908 23.06662717819296 L433.70833333333337 23.150285400237465 L435.563770053476 23.234067149487316 L437.4192067736186 23.317970117476932 L439.27464349376123 23.401992037047194 L441.1300802139038 23.48613068143942 L442.9855169340464 23.57038386341486 L444.84095365418904 23.65474943439534 L446.6963903743316 23.73922528362698 L448.5518270944742 23.82380933736522 L450.40726381461684 23.908499558081928 L452.2627005347594 23.99329394369056 L454.118137254902 24.078190526793435 L455.97357397504464 24.163187373946528 L457.8290106951872 24.248282584943695 L459.6844474153298 24.333474292118638 L461.53988413547245 24.41876065966386 L463.39532085561507 24.504139882967934 L465.25075757575763 24.589610187967367 L467.10619429590025 24.67516983051695 L468.9616310160429 24.760817095772666 L470.81706773618544 24.84655029759307 L472.67250445632806 24.932367777951924 L474.5279411764707 25.01826790636784 L476.38337789661324 25.10424907934646 L478.23881461675586 25.190309719836137 L480.0942513368985 25.276448276697295 L481.94968805704104 25.362663224183848 L483.80512477718366 25.448953061437635 L485.6605614973263 25.535316311993995 L487.5159982174689 25.621751523300475 L489.37143493761147 25.70825726624497 L491.2268716577541 25.794832134697003 L493.0823083778967 25.88147474505763 L494.9377450980393 25.968183735822322 L496.7931818181819 26.05495776715128 " fill="none" stroke-width="1.4" stroke="rgb(255,0,0)" stroke-opacity="1.0">
          </path>
        </g>
      </g>
      <g transform="translate(46.550000000000004 0.0 ) " clip-path="url(#ZtRffh)" clip-bounds-jfx="[rect (0.0, 0.0), (520.45, 337.89)]">
        <defs>
          <clipPath id="ZtRffh">
            <rect x="0.0" y="0.0" width="520.45" height="337.89">
            </rect>
          </clipPath>
        </defs>
        <g>
          <path d="M23.656818181818185 322.5313636363636 L23.656818181818185 322.5313636363636 L25.512254901960787 207.8679196045634 L29.223128342245992 149.7435931368306 L36.6448752228164 71.01155092144705 L51.48836898395723 64.67071530678533 L81.17535650623887 29.443850780886635 L140.54933155080215 20.108731681523466 L259.2972816399287 15.52923929315665 L496.7931818181819 25.0404927151493 " fill="none" stroke-width="2.0" stroke="rgb(17,142,216)" stroke-opacity="1.0">
          </path>
        </g>
      </g>
      <g transform="translate(46.550000000000004 0.0 ) " clip-path="url(#UzLXK6)" clip-bounds-jfx="[rect (0.0, 0.0), (520.45, 337.89)]">
        <defs>
          <clipPath id="UzLXK6">
            <rect x="0.0" y="0.0" width="520.45" height="337.89">
            </rect>
          </clipPath>
        </defs>
        <g>
          
          <g >
            <circle fill="#118ed8" stroke="#118ed8" stroke-opacity="0.0" stroke-width="0.0" cx="23.656818181818185" cy="322.5313636363636" r="3.3000000000000003" />
            <circle fill="#118ed8" stroke="#118ed8" stroke-opacity="0.0" stroke-width="0.0" cx="25.512254901960787" cy="207.8679196045634" r="3.3000000000000003" />
            <circle fill="#118ed8" stroke="#118ed8" stroke-opacity="0.0" stroke-width="0.0" cx="29.223128342245992" cy="149.7435931368306" r="3.3000000000000003" />
            <circle fill="#118ed8" stroke="#118ed8" stroke-opacity="0.0" stroke-width="0.0" cx="36.6448752228164" cy="71.01155092144705" r="3.3000000000000003" />
            <circle fill="#118ed8" stroke="#118ed8" stroke-opacity="0.0" stroke-width="0.0" cx="51.48836898395723" cy="64.67071530678533" r="3.3000000000000003" />
            <circle fill="#118ed8" stroke="#118ed8" stroke-opacity="0.0" stroke-width="0.0" cx="81.17535650623887" cy="29.443850780886635" r="3.3000000000000003" />
            <circle fill="#118ed8" stroke="#118ed8" stroke-opacity="0.0" stroke-width="0.0" cx="140.54933155080215" cy="20.108731681523466" r="3.3000000000000003" />
            <circle fill="#118ed8" stroke="#118ed8" stroke-opacity="0.0" stroke-width="0.0" cx="259.2972816399287" cy="15.52923929315665" r="3.3000000000000003" />
            <circle fill="#118ed8" stroke="#118ed8" stroke-opacity="0.0" stroke-width="0.0" cx="496.7931818181819" cy="25.0404927151493" r="3.3000000000000003" />
          </g>
        </g>
      </g>
    </g>
    <g class="plt-axis">
      <g transform="translate(17.0 178.945 ) rotate(-90.0 ) " class="plt-axis-title">
        <text text-anchor="middle" style="fill:#474747;">
        Throughput
        </text>
      </g>
    </g>
    <g class="plt-axis">
      <g transform="translate(329.77500000000003 381.0 ) " class="plt-axis-title">
        <text text-anchor="middle" dy="0.7em" style="fill:#474747;">
        Concurrency
        </text>
      </g>
    </g>
  </g>
</svg>