<svg xmlns="http://www.w3.org/2000/svg" class="plt-container" width="600.0" height="400.0">
  <style type="text/css">
  .plt-container {
	font-family: "Lucida Grande", sans-serif;
	cursor: crosshair;
	user-select: none;
	-webkit-user-select: none;
	-moz-user-select: none;
	-ms-user-select: none;
}
text {
	font-size: 15px;
	fill: #3d3d3d;
	
	text-rendering: optimizeLegibility;
}
.plt-data-tooltip text {
	font-size: 13px;
}
.plt-axis-tooltip text {
	font-size: 13px;
}
.plt-axis line {
	shape-rendering: crispedges;
}
.plt-plot-title {

  font-size: 19.0px;
  font-weight: bold;
}
.plt-axis .tick text {

  font-size: 13.0px;
}
.plt-axis.small-tick-font .tick text {

  font-size: 11.0px;
}
.plt-axis-title text {

  font-size: 15.0px;
}
.plt_legend .legend-title text {

  font-size: 15.0px;
}
.plt_legend text {

  font-size: 13.0px;
}

  </style>
  <g class="plt-plot">
    <rect x="0.0" y="0.0" height="400.0" width="600.0" stroke="rgb(71,71,71)" stroke-opacity="1.0" stroke-width="0.0" fill="rgb(255,255,255)" fill-opacity="0.99">
    </rect>
    <g transform="translate(23.0 10.0 ) ">
      <g transform="translate(46.550000000000004 337.89 ) " class="plt-axis">
        <line x1="23.656818181818185" y1="0.0" x2="23.656818181818185" y2="-337.89" stroke="rgb(233,233,233)" stroke-opacity="1.0" stroke-width="1.0">
        </line>
        <line x1="25.512254901960787" y1="0.0" x2="25.512254901960787" y2="-337.89" stroke="rgb(233,233,233)" stroke-opacity="1.0" stroke-width="1.0">
        </line>
        <line x1="29.223128342245992" y1="0.0" x2="29.223128342245992" y2="-337.89" stroke="rgb(233,233,233)" stroke-opacity="1.0" stroke-width="1.0">
        </line>
        <line x1="36.6448752228164" y1="0.0" x2="36.6448752228164" y2="-337.89" stroke="rgb(233,233,233)" stroke-opacity="1.0" stroke-width="1.0">
        </line>
        <line x1="51.48836898395723" y1="0.0" x2="51.48836898395723" y2="-337.89" stroke="rgb(233,233,233)" stroke-opacity="1.0" stroke-width="1.0">
        </line>
        <line x1="81.17535650623887" y1="0.0" x2="81.17535650623887" y2="-337.89" stroke="rgb(233,233,233)" stroke-opacity="1.0" stroke-width="1.0">
        </line>
        <line x1="140.54933155080215" y1="0.0" x2="140.54933155080215" y2="-337.89" stroke="rgb(233,233,233)" stroke-opacity="1.0" stroke-width="1.0">
        </line>
        <line x1="259.2972816399287" y1="0.0" x2="259.2972816399287" y2="-337.89" stroke="rgb(233,233,233)" stroke-opacity="1.0" stroke-width="1.0">
        </line>
        <line x1="496.7931818181819" y1="0.0" x2="496.7931818181819" y2="-337.89" stroke="rgb(233,233,233)" stroke-opacity="1.0" stroke-width="1.0">
        </line>
        <g class="tick" transform="translate(23.656818181818185 0.0 ) ">
          <line stroke-width="1.0" stroke="rgb(71,71,71)" stroke-opacity="1.0" x2="0.0" y2="4.0">
          </line>
          <g transform="translate(0.0 7.0 ) rotate(90.0 ) ">
            <text style="fill:#474747;" dy="0.35em">
            1
            </text>
          </g>
        </g>
        <g class="tick" transform="translate(25.512254901960787 0.0 ) ">
          <line stroke-width="1.0" stroke="rgb(71,71,71)" stroke-opacity="1.0" x2="0.0" y2="4.0">
          </line>
        </g>
        <g class="tick" transform="translate(29.223128342245992 0.0 ) ">
          <line stroke-width="1.0" stroke="rgb(71,71,71)" stroke-opacity="1.0" x2="0.0" y2="4.0">
          </line>
        </g>
        <g class="tick" transform="translate(36.6448752228164 0.0 ) ">
          <line stroke-width="1.0" stroke="rgb(71,71,71)" stroke-opacity="1.0" x2="0.0" y2="4.0">
          </line>
        </g>
        <g class="tick" transform="translate(51.48836898395723 0.0 ) ">
          <line stroke-width="1.0" stroke="rgb(71,71,71)" stroke-opacity="1.0" x2="0.0" y2="4.0">
          </line>
          <g transform="translate(0.0 7.0 ) rotate(90.0 ) ">
            <text style="fill:#474747;" dy="0.35em">
            16
            </text>
          </g>
        </g>
        <g class="tick" transform="translate(81.17535650623887 0.0 ) ">
          <line stroke-width="1.0" stroke="rgb(71,71,71)" stroke-opacity="1.0" x2="0.0" y2="4.0">
          </line>
          <g transform="translate(0.0 7.0 ) rotate(90.0 ) ">
            <text style="fill:#474747;" dy="0.35em">
            32
            </text>
          </g>
        </g>
        <g class="tick" transform="translate(140.54933155080215 0.0 ) ">
          <line stroke-width="1.0" stroke="rgb(71,71,71)" stroke-opacity="1.0" x2="0.0" y2="4.0">
          </line>
          <g transform="translate(0.0 7.0 ) rotate(90.0 ) ">
            <text style="fill:#474747;" dy="0.35em">
            64
            </text>
          </g>
        </g>
        <g class="tick" transform="translate(259.2972816399287 0.0 ) ">
          <line stroke-width="1.0" stroke="rgb(71,71,71)" stroke-opacity="1.0" x2="0.0" y2="4.0">
          </line>
          <g transform="translate(0.0 7.0 ) rotate(90.0 ) ">
            <text style="fill:#474747;" dy="0.35em">
            128
            </text>
          </g>
        </g>
        <g class="tick" transform="translate(496.7931818181819 0.0 ) ">
          <line stroke-width="1.0" stroke="rgb(71,71,71)" stroke-opacity="1.0" x2="0.0" y2="4.0">
          </line>
          <g transform="translate(0.0 7.0 ) rotate(90.0 ) ">
            <text style="fill:#474747;" dy="0.35em">
            256
            </text>
          </g>
        </g>
        <line x1="0.0" y1="0.0" x2="520.45" y2="0.0" stroke-width="1.0" stroke="rgb(71,71,71)" stroke-opacity="1.0">
        </line>
      </g>
      <g transform="translate(46.550000000000004 0.0 ) " class="plt-axis">
        <line x1="0.0" y1="288.68070258090944" x2="520.45" y2="288.68070258090944" stroke="rgb(233,233,233)" stroke-opacity="1.0" stroke-width="1.0">
        </line>
        <line x1="0.0" y1="225.76125823991654" x2="520.45" y2="225.76125823991654" stroke="rgb(233,233,233)" stroke-opacity="1.0" stroke-width="1.0">
        </line>
        <line x1="0.0" y1="162.84181389892368" x2="520.45" y2="162.84181389892368" stroke="rgb(233,233,233)" stroke-opacity="1.0" stroke-width="1.0">
        </line>
        <line x1="0.0" y1="99.92236955793078" x2="520.45" y2="99.92236955793078" stroke="rgb(233,233,233)" stroke-opacity="1.0" stroke-width="1.0">
        </line>
        <line x1="0.0" y1="37.00292521693791" x2="520.45" y2="37.00292521693791" stroke="rgb(233,233,233)" stroke-opacity="1.0" stroke-width="1.0">
        </line>
        <g class="tick" transform="translate(0.0 288.68070258090944 ) ">
          <g transform="translate(-3.0 0.0 ) ">
            <text style="fill:#474747;" text-anchor="end" dy="0.35em">
            1,000
            </text>
          </g>
        </g>
        <g class="tick" transform="translate(0.0 225.76125823991654 ) ">
          <g transform="translate(-3.0 0.0 ) ">
            <text style="fill:#474747;" text-anchor="end" dy="0.35em">
            1,500
            </text>
          </g>
        </g>
        <g class="tick" transform="translate(0.0 162.84181389892368 ) ">
          <g transform="translate(-3.0 0.0 ) ">
            <text style="fill:#474747;" text-anchor="end" dy="0.35em">
            2,000
            </text>
          </g>
        </g>
        <g class="tick" transform="translate(0.0 99.92236955793078 ) ">
          <g transform="translate(-3.0 0.0 ) ">
            <text style="fill:#474747;" text-anchor="end" dy="0.35em">
            2,500
            </text>
          </g>
        </g>
        <g class="tick" transform="translate(0.0 37.00292521693791 ) ">
          <g transform="translate(-3.0 0.0 ) ">
            <text style="fill:#474747;" text-anchor="end" dy="0.35em">
            3,000
            </text>
          </g>
        </g>
      </g>
      <g transform="translate(46.550000000000004 0.0 ) " clip-path="url(#LHYiAE)" clip-bounds-jfx="[rect (0.0, 0.0), (520.45, 337.89)]">
        <defs>
          <clipPath id="LHYiAE">
            <rect x="0.0" y="0.0" width="520.45" height="337.89">
            </rect>
          </clipPath>
        </defs>
        <g>
          <path d="M23.656818181818185 275.49057600779327 L23.656818181818185 275.49057600779327 L25.512254901960787 201.07721827827854 L27.36769162210339 155.1907894737285 L29.223128342245992 124.39305665067519 L31.0785650623886 102.53626291110601 L32.9340017825312 86.4096656793476 L34.789438502673804 74.17282540817007 L36.6448752228164 64.69510142319967 L38.50031194295901 57.2436007477387 L40.35574866310161 51.322446527441855 L42.211185383244214 46.58416009329028 L44.06662210338682 42.77803605886504 L45.92205882352942 39.71866612219128 L47.77749554367202 37.265997437657916 L49.632932263814624 35.31227805453017 L51.48836898395723 33.773265519635515 L53.34380570409983 32.58215826023945 L55.199242424242435 31.68531422991424 L57.054679144385034 31.039171464804156 L58.91011586452764 30.6079945026284 L60.76555258467024 30.362199327497535 L62.620989304812845 30.277090686882957 L64.47642602495544 30.33189801423856 L66.33186274509805 30.509030700516632 L68.18729946524064 30.793496621159818 L70.04273618538326 31.17244364105096 L71.89817290552585 31.63479478979025 L73.75360962566846 32.17095551901997 L75.60904634581107 32.772576958432865 L77.46448306595366 33.43236306159622 L79.31991978609626 34.14391243539643 L81.17535650623887 34.90158778956368 L83.03079322638148 35.7004075402354 L84.88622994652408 36.53595530374258 L86.74166666666667 37.40430392951026 L88.5971033868093 38.30195141960729 L90.45254010695189 39.225766621429386 L92.30797682709448 40.17294299880041 L94.1634135472371 41.140959114477084 L96.01885026737969 42.127544715142164 L97.87428698752228 43.13065151451025 L99.7297237076649 44.14842793322373 L101.5851604278075 45.17919718493391 L103.44059714795011 46.22143820329882 L105.2960338680927 47.27376898996505 L107.1514705882353 48.33493203305176 L109.00690730837792 49.40378150244902 L110.86234402852051 50.47927197488963 L112.71778074866313 51.560448480226114 L114.57321746880572 52.64643769220942 L116.42865418894831 53.736440113552305 L118.28409090909093 54.8297231271676 L120.13952762923353 55.925614803982626 L121.99496434937612 57.02349837328745 L123.85040106951874 58.12280727469118 L125.70583778966133 59.22302072185175 L127.56127450980395 60.323659717560474 L129.41671122994654 61.42428346776916 L131.27214795008913 62.5244861489802 L133.12758467023176 63.623893989272574 L134.98302139037435 64.7221626282498 L136.83845811051694 65.81897472551447 L138.69389483065956 66.9140377909938 L140.54933155080215 68.00708221366 L142.40476827094477 69.09785946797291 L144.26020499108736 70.18614047979742 L146.11564171122996 71.27171413564838 L147.97107843137258 72.35438592095807 L149.82651515151517 73.43397667466274 L151.6819518716578 74.51032144881253 L153.53738859180038 75.58326846313946 L155.392825311943 76.65267814560576 L157.2482620320856 77.71842225090404 L159.10369875222818 78.78038304972875 L160.9591354723708 79.83845258237562 L162.8145721925134 80.89253197089079 L164.670008912656 81.9425307845691 L166.5254456327986 82.98836645412376 L168.3808823529412 84.02996373030805 L170.23631907308382 85.06725418318194 L172.0917557932264 86.10017573858033 L173.947192513369 87.12867224867034 L175.80262923351162 88.15269309377425 L177.65806595365422 89.17219281289863 L179.51350267379684 90.187130760645 L181.36893939393943 91.19747078838907 L183.22437611408202 92.20318094780265 L185.07981283422464 93.2042332149681 L186.93524955436723 94.20060323348429 L188.79068627450982 95.1922700751058 L190.64612299465244 96.17921601658031 L192.50155971479504 97.16142633146399 L194.35699643493766 98.13888909579714 L196.21243315508025 99.1115950066158 L198.06786987522284 100.07953721235981 L199.92330659536546 101.04271115431334 L201.77874331550805 102.00111441828676 L203.63418003565067 102.95474659580861 L205.48961675579326 103.90360915415772 L207.34505347593586 104.84770531461521 L209.20049019607848 105.78703993836831 L211.05592691622107 106.72161941953766 L212.91136363636366 107.65145158484336 L214.76680035650628 108.57654559945979 L216.62223707664887 109.49691187864488 L218.4776737967915 110.41256200475851 L220.33311051693408 111.32350864931476 L222.18854723707668 112.22976549973765 L224.0439839572193 113.13134719051482 L225.8994206773619 114.0282692384647 L227.75485739750448 114.92054798185455 L229.6102941176471 115.8082005231235 L231.4657308377897 116.69124467498312 L233.3211675579323 117.56969890968423 L235.1766042780749 118.44358231125187 L237.0320409982175 119.31291453050568 L238.88747771836012 120.17771574269347 L240.7429144385027 121.03800660758026 L242.59835115864533 121.89380823184115 L244.45378787878792 122.74514213362193 L246.3092245989305 123.59203020913549 L248.16466131907313 124.43449470117434 L250.02009803921572 125.27255816942414 L251.87553475935832 126.10624346247465 L253.73097147950094 126.93557369142604 L255.58640819964353 127.76057220499962 L257.44184491978615 128.58126256606573 L259.2972816399287 129.39766852950657 L261.15271836007133 130.20981402133782 L263.00815508021395 131.01772311901777 L264.8635918003565 131.82142003287566 L266.71902852049914 132.62092908859802 L268.57446524064176 133.41627471071058 L270.4299019607843 134.20748140700385 L272.28533868092694 134.99457375384628 L274.14077540106956 135.77757638233885 L275.9962121212121 136.55651396526264 L277.85164884135474 137.33141120477632 L279.70708556149737 138.1022928208244 L281.56252228164 138.86918354021344 L283.41795900178255 139.632108086325 L285.27339572192517 140.3910911694266 L287.1288324420678 141.14615747755118 L288.9842691622104 141.89733166791285 L290.839705882353 142.64463835883208 L292.6951426024956 143.38810212214088 L294.5505793226382 144.1277474760442 L296.4060160427808 144.8635988784127 L298.2614527629234 145.59568072048404 L300.116889483066 146.32401732095104 L301.9723262032086 147.04863292041716 L303.8277629233512 147.76955167619798 L305.6831996434938 148.48679765745362 L307.5386363636364 149.20039484063182 L309.394073083779 149.91036710520729 L311.2495098039216 150.61673822970107 L313.10494652406425 151.3195318879657 L314.9603832442068 152.01877164572227 L316.81581996434943 152.7144809573362 L318.67125668449205 153.40668316281915 L320.5266934046346 154.09540148504612 L322.38213012477723 154.78065902717566 L324.23756684491985 155.4624787702632 L326.0930035650624 156.1408835710576 L327.94844028520504 156.81589615997058 L329.80387700534766 157.4875391392116 L331.6593137254902 158.15583498107804 L333.51475044563284 158.82080602639374 L335.37018716577546 159.48247448308737 L337.2256238859181 160.1408624249044 L339.08106060606065 160.79599179024459 L340.93649732620327 161.44788438111897 L342.7919340463459 162.09656186222097 L344.64737076648845 162.74204576010342 L346.50280748663107 163.38435746245872 L348.3582442067737 164.0235182174946 L350.21368092691625 164.65954913340124 L352.0691176470589 165.2924711779053 L353.9245543672015 165.92230517790532 L355.77999108734406 166.54907181918517 L357.6354278074867 167.17279164620055 L359.4908645276293 167.7934850619351 L361.3463012477719 168.41117232782258 L363.2017379679145 169.0258735637303 L365.0571746880571 169.63760874800246 L366.9126114081997 170.24639771755815 L368.7680481283423 170.85226016804265 L370.6234848484849 171.45521565402746 L372.4789215686275 172.05528358925767 L374.3343582887701 172.6524832469437 L376.1897950089127 173.246833760094 L378.04523172905533 173.83835412188787 L379.9006684491979 174.42706318608444 L381.7561051693405 175.01297966746714 L383.61154188948314 175.59612214232084 L385.46697860962576 176.17650904893918 L387.3224153297683 176.7541586881621 L389.17785204991094 177.32908922393918 L391.03328877005356 177.90131868391933 L392.8887254901961 178.47086496006435 L394.74416221033874 179.0377458092842 L396.59959893048136 179.601978854094 L398.4550356506239 180.16358158328995 L400.31047237076655 180.72257135264357 L402.16590909090917 181.27896538561316 L404.02134581105173 181.83278077407041 L405.87678253119435 182.38403447904244 L407.73221925133697 182.93274333146633 L409.5876559714796 183.4789240329572 L411.44309269162216 184.0225931565869 L413.2985294117648 184.56376714767404 L415.1539661319074 185.10246232458292 L417.00940285204996 185.6386948795319 L418.8648395721926 186.17248087940982 L420.7202762923352 186.7038362665991 L422.57571301247776 187.23277685980608 L424.4311497326204 187.7593183548969 L426.286586452763 188.2834763257384 L428.14202317290557 188.80526622504414 L429.9974598930482 189.32470338522364 L431.8528966131908 189.84180301923604 L433.70833333333337 190.35658022144563 L435.563770053476 190.86904996848034 L437.4192067736186 191.37922712009245 L439.27464349376123 191.88712642001934 L441.1300802139038 192.39276249684744 L442.9855169340464 192.89614986487467 L444.84095365418904 193.39730292497407 L446.6963903743316 193.8962359654578 L448.5518270944742 194.3929631629392 L450.40726381461684 194.88749858319522 L452.2627005347594 195.3798561820273 L454.118137254902 195.87004980612065 L455.97357397504464 196.35809319390194 L457.8290106951872 196.84399997639474 L459.6844474153298 197.3277836780733 L461.53988413547245 197.80945771771317 L463.39532085561507 198.28903540923937 L465.25075757575763 198.76652996257172 L467.10619429590025 199.24195448446702 L468.9616310160429 199.71532197935738 L470.81706773618544 200.18664535018624 L472.67250445632806 200.65593739923938 L474.5279411764707 201.12321082897313 L476.38337789661324 201.58847824283782 L478.23881461675586 202.05175214609795 L480.0942513368985 202.5130449466474 L481.94968805704104 202.97236895582088 L483.80512477718366 203.42973638920031 L485.6605614973263 203.88515936741712 L487.5159982174689 204.33864991694983 L489.37143493761147 204.79021997091658 L491.2268716577541 205.23988136986316 L493.0823083778967 205.6876458625459 L494.9377450980393 206.1335251067098 L496.7931818181819 206.57753066986132 " fill="none" stroke-width="1.4" stroke="rgb(255,0,0)" stroke-opacity="1.0">
          </path>
        </g>
      </g>
      <g transform="translate(46.550000000000004 0.0 ) " clip-path="url(#HfGPkW)" clip-bounds-jfx="[rect (0.0, 0.0), (520.45, 337.89)]">
        <defs>
          <clipPath id="HfGPkW">
            <rect x="0.0" y="0.0" width="520.45" height="337.89">
            </rect>
          </clipPath>
        </defs>
        <g>
          <path d="M23.656818181818185 322.5313636363636 L23.656818181818185 322.5313636363636 L25.512254901960787 203.86529160925102 L29.223128342245992 103.32001955234438 L36.6448752228164 15.358636363636379 L51.48836898395723 40.90393076607944 L81.17535650623887 61.66734739860709 L140.54933155080215 90.10693624073588 L259.2972816399287 135.03141950020483 L496.7931818181819 178.19415831812591 " fill="none" stroke-width="2.0" stroke="rgb(17,142,216)" stroke-opacity="1.0">
          </path>
        </g>
      </g>
      <g transform="translate(46.550000000000004 0.0 ) " clip-path="url(#EInpFF)" clip-bounds-jfx="[rect (0.0, 0.0), (520.45, 337.89)]">
        <defs>
          <clipPath id="EInpFF">
            <rect x="0.0" y="0.0" width="520.45" height="337.89">
            </rect>
          </clipPath>
        </defs>
        <g>
          
          <g >
            <circle fill="#118ed8" stroke="#118ed8" stroke-opacity="0.0" stroke-width="0.0" cx="23.656818181818185" cy="322.5313636363636" r="3.3000000000000003" />
            <circle fill="#118ed8" stroke="#118ed8" stroke-opacity="0.0" stroke-width="0.0" cx="25.512254901960787" cy="203.86529160925102" r="3.3000000000000003" />
            <circle fill="#118ed8" stroke="#118ed8" stroke-opacity="0.0" stroke-width="0.0" cx="29.223128342245992" cy="103.32001955234438" r="3.3000000000000003" />
            <circle fill="#118ed8" stroke="#118ed8" stroke-opacity="0.0" stroke-width="0.0" cx="36.6448752228164" cy="15.358636363636379" r="3.3000000000000003" />
            <circle fill="#118ed8" stroke="#118ed8" stroke-opacity="0.0" stroke-width="0.0" cx="51.48836898395723" cy="40.90393076607944" r="3.3000000000000003" />
            <circle fill="#118ed8" stroke="#118ed8" stroke-opacity="0.0" stroke-width="0.0" cx="81.17535650623887" cy="61.66734739860709" r="3.3000000000000003" />
            <circle fill="#118ed8" stroke="#118ed8" stroke-opacity="0.0" stroke-width="0.0" cx="140.54933155080215" cy="90.10693624073588" r="3.3000000000000003" />
            <circle fill="#118ed8" stroke="#118ed8" stroke-opacity="0.0" stroke-width="0.0" cx="259.2972816399287" cy="135.03141950020483" r="3.3000000000000003" />
            <circle fill="#118ed8" stroke="#118ed8" stroke-opacity="0.0" stroke-width="0.0" cx="496.7931818181819" cy="178.19415831812591" r="3.3000000000000003" />
          </g>
        </g>
      </g>
    </g>
    <g class="plt-axis">
      <g transform="translate(17.0 178.945 ) rotate(-90.0 ) " class="plt-axis-title">
        <text text-anchor="middle" style="fill:#474747;">
        Throughput
        </text>
      </g>
    </g>
    <g class="plt-axis">
      <g transform="translate(329.77500000000003 381.0 ) " class="plt-axis-title">
        <text text-anchor="middle" dy="0.7em" style="fill:#474747;">
        Concurrency
        </text>
      </g>
    </g>
  </g>
</svg>