<svg xmlns="http://www.w3.org/2000/svg" class="plt-container" width="600.0" height="400.0">
  <style type="text/css">
  .plt-container {
	font-family: "Lucida Grande", sans-serif;
	cursor: crosshair;
	user-select: none;
	-webkit-user-select: none;
	-moz-user-select: none;
	-ms-user-select: none;
}
text {
	font-size: 15px;
	fill: #3d3d3d;
	
	text-rendering: optimizeLegibility;
}
.plt-data-tooltip text {
	font-size: 13px;
}
.plt-axis-tooltip text {
	font-size: 13px;
}
.plt-axis line {
	shape-rendering: crispedges;
}
.plt-plot-title {

  font-size: 19.0px;
  font-weight: bold;
}
.plt-axis .tick text {

  font-size: 13.0px;
}
.plt-axis.small-tick-font .tick text {

  font-size: 11.0px;
}
.plt-axis-title text {

  font-size: 15.0px;
}
.plt_legend .legend-title text {

  font-size: 15.0px;
}
.plt_legend text {

  font-size: 13.0px;
}

  </style>
  <g class="plt-plot">
    <rect x="0.0" y="0.0" height="400.0" width="600.0" stroke="rgb(71,71,71)" stroke-opacity="1.0" stroke-width="0.0" fill="rgb(255,255,255)" fill-opacity="0.99">
    </rect>
    <g transform="translate(23.0 10.0 ) ">
      <g transform="translate(46.550000000000004 337.89 ) " class="plt-axis">
        <line x1="23.656818181818185" y1="0.0" x2="23.656818181818185" y2="-337.89" stroke="rgb(233,233,233)" stroke-opacity="1.0" stroke-width="1.0">
        </line>
        <line x1="25.512254901960787" y1="0.0" x2="25.512254901960787" y2="-337.89" stroke="rgb(233,233,233)" stroke-opacity="1.0" stroke-width="1.0">
        </line>
        <line x1="29.223128342245992" y1="0.0" x2="29.223128342245992" y2="-337.89" stroke="rgb(233,233,233)" stroke-opacity="1.0" stroke-width="1.0">
        </line>
        <line x1="36.6448752228164" y1="0.0" x2="36.6448752228164" y2="-337.89" stroke="rgb(233,233,233)" stroke-opacity="1.0" stroke-width="1.0">
        </line>
        <line x1="51.48836898395723" y1="0.0" x2="51.48836898395723" y2="-337.89" stroke="rgb(233,233,233)" stroke-opacity="1.0" stroke-width="1.0">
        </line>
        <line x1="81.17535650623887" y1="0.0" x2="81.17535650623887" y2="-337.89" stroke="rgb(233,233,233)" stroke-opacity="1.0" stroke-width="1.0">
        </line>
        <line x1="140.54933155080215" y1="0.0" x2="140.54933155080215" y2="-337.89" stroke="rgb(233,233,233)" stroke-opacity="1.0" stroke-width="1.0">
        </line>
        <line x1="259.2972816399287" y1="0.0" x2="259.2972816399287" y2="-337.89" stroke="rgb(233,233,233)" stroke-opacity="1.0" stroke-width="1.0">
        </line>
        <line x1="496.7931818181819" y1="0.0" x2="496.7931818181819" y2="-337.89" stroke="rgb(233,233,233)" stroke-opacity="1.0" stroke-width="1.0">
        </line>
        <g class="tick" transform="translate(23.656818181818185 0.0 ) ">
          <line stroke-width="1.0" stroke="rgb(71,71,71)" stroke-opacity="1.0" x2="0.0" y2="4.0">
          </line>
          <g transform="translate(0.0 7.0 ) rotate(90.0 ) ">
            <text style="fill:#474747;" dy="0.35em">
            1
            </text>
          </g>
        </g>
        <g class="tick" transform="translate(25.512254901960787 0.0 ) ">
          <line stroke-width="1.0" stroke="rgb(71,71,71)" stroke-opacity="1.0" x2="0.0" y2="4.0">
          </line>
        </g>
        <g class="tick" transform="translate(29.223128342245992 0.0 ) ">
          <line stroke-width="1.0" stroke="rgb(71,71,71)" stroke-opacity="1.0" x2="0.0" y2="4.0">
          </line>
        </g>
        <g class="tick" transform="translate(36.6448752228164 0.0 ) ">
          <line stroke-width="1.0" stroke="rgb(71,71,71)" stroke-opacity="1.0" x2="0.0" y2="4.0">
          </line>
        </g>
        <g class="tick" transform="translate(51.48836898395723 0.0 ) ">
          <line stroke-width="1.0" stroke="rgb(71,71,71)" stroke-opacity="1.0" x2="0.0" y2="4.0">
          </line>
          <g transform="translate(0.0 7.0 ) rotate(90.0 ) ">
            <text style="fill:#474747;" dy="0.35em">
            16
            </text>
          </g>
        </g>
        <g class="tick" transform="translate(81.17535650623887 0.0 ) ">
          <line stroke-width="1.0" stroke="rgb(71,71,71)" stroke-opacity="1.0" x2="0.0" y2="4.0">
          </line>
          <g transform="translate(0.0 7.0 ) rotate(90.0 ) ">
            <text style="fill:#474747;" dy="0.35em">
            32
            </text>
          </g>
        </g>
        <g class="tick" transform="translate(140.54933155080215 0.0 ) ">
          <line stroke-width="1.0" stroke="rgb(71,71,71)" stroke-opacity="1.0" x2="0.0" y2="4.0">
          </line>
          <g transform="translate(0.0 7.0 ) rotate(90.0 ) ">
            <text style="fill:#474747;" dy="0.35em">
            64
            </text>
          </g>
        </g>
        <g class="tick" transform="translate(259.2972816399287 0.0 ) ">
          <line stroke-width="1.0" stroke="rgb(71,71,71)" stroke-opacity="1.0" x2="0.0" y2="4.0">
          </line>
          <g transform="translate(0.0 7.0 ) rotate(90.0 ) ">
            <text style="fill:#474747;" dy="0.35em">
            128
            </text>
          </g>
        </g>
        <g class="tick" transform="translate(496.7931818181819 0.0 ) ">
          <line stroke-width="1.0" stroke="rgb(71,71,71)" stroke-opacity="1.0" x2="0.0" y2="4.0">
          </line>
          <g transform="translate(0.0 7.0 ) rotate(90.0 ) ">
            <text style="fill:#474747;" dy="0.35em">
            256
            </text>
          </g>
        </g>
        <line x1="0.0" y1="0.0" x2="520.45" y2="0.0" stroke-width="1.0" stroke="rgb(71,71,71)" stroke-opacity="1.0">
        </line>
      </g>
      <g transform="translate(46.550000000000004 0.0 ) " class="plt-axis">
        <line x1="0.0" y1="286.7925141128821" x2="520.45" y2="286.7925141128821" stroke="rgb(233,233,233)" stroke-opacity="1.0" stroke-width="1.0">
        </line>
        <line x1="0.0" y1="232.642742107607" x2="520.45" y2="232.642742107607" stroke="rgb(233,233,233)" stroke-opacity="1.0" stroke-width="1.0">
        </line>
        <line x1="0.0" y1="178.49297010233192" x2="520.45" y2="178.49297010233192" stroke="rgb(233,233,233)" stroke-opacity="1.0" stroke-width="1.0">
        </line>
        <line x1="0.0" y1="124.34319809705681" x2="520.45" y2="124.34319809705681" stroke="rgb(233,233,233)" stroke-opacity="1.0" stroke-width="1.0">
        </line>
        <line x1="0.0" y1="70.19342609178176" x2="520.45" y2="70.19342609178176" stroke="rgb(233,233,233)" stroke-opacity="1.0" stroke-width="1.0">
        </line>
        <line x1="0.0" y1="16.04365408650665" x2="520.45" y2="16.04365408650665" stroke="rgb(233,233,233)" stroke-opacity="1.0" stroke-width="1.0">
        </line>
        <g class="tick" transform="translate(0.0 286.7925141128821 ) ">
          <g transform="translate(-3.0 0.0 ) ">
            <text style="fill:#474747;" text-anchor="end" dy="0.35em">
            600
            </text>
          </g>
        </g>
        <g class="tick" transform="translate(0.0 232.642742107607 ) ">
          <g transform="translate(-3.0 0.0 ) ">
            <text style="fill:#474747;" text-anchor="end" dy="0.35em">
            800
            </text>
          </g>
        </g>
        <g class="tick" transform="translate(0.0 178.49297010233192 ) ">
          <g transform="translate(-3.0 0.0 ) ">
            <text style="fill:#474747;" text-anchor="end" dy="0.35em">
            1,000
            </text>
          </g>
        </g>
        <g class="tick" transform="translate(0.0 124.34319809705681 ) ">
          <g transform="translate(-3.0 0.0 ) ">
            <text style="fill:#474747;" text-anchor="end" dy="0.35em">
            1,200
            </text>
          </g>
        </g>
        <g class="tick" transform="translate(0.0 70.19342609178176 ) ">
          <g transform="translate(-3.0 0.0 ) ">
            <text style="fill:#474747;" text-anchor="end" dy="0.35em">
            1,400
            </text>
          </g>
        </g>
        <g class="tick" transform="translate(0.0 16.04365408650665 ) ">
          <g transform="translate(-3.0 0.0 ) ">
            <text style="fill:#474747;" text-anchor="end" dy="0.35em">
            1,600
            </text>
          </g>
        </g>
      </g>
      <g transform="translate(46.550000000000004 0.0 ) " clip-path="url(#wNqMJA)" clip-bounds-jfx="[rect (0.0, 0.0), (520.45, 337.89)]">
        <defs>
          <clipPath id="wNqMJA">
            <rect x="0.0" y="0.0" width="520.45" height="337.89">
            </rect>
          </clipPath>
        </defs>
        <g>
          <path d="M23.656818181818185 296.51419263748846 L23.656818181818185 296.51419263748846 L25.512254901960787 217.58522163262708 L27.36769162210339 169.5249557373457 L29.223128342245992 137.29237296996024 L31.0785650623886 114.25246016877071 L32.9340017825312 97.02375179337679 L34.789438502673804 83.70184752779136 L36.6448752228164 73.13231508772714 L38.50031194295901 64.57460096238725 L40.35574866310161 57.53181183913688 L42.211185383244214 51.658119353120526 L44.06662210338682 46.705407663864605 L45.92205882352942 42.491040562692035 L47.77749554367202 38.87759825658003 L49.632932263814624 35.759700317891316 L51.48836898395723 33.055182938488144 L53.34380570409983 30.699039440946933 L55.199242424242435 28.63916445290971 L57.054679144385034 26.833304992777755 L58.91011586452764 25.246837175305643 L60.76555258467024 23.851118968042556 L62.620989304812845 22.622252077642656 L64.47642602495544 21.540139125853045 L66.33186274509805 20.587757092124605 L68.18729946524064 19.75059127843332 L70.04273618538326 19.016189889910947 L71.89817290552585 18.37381027416785 L73.75360962566846 17.814135543815894 L75.60904634581107 17.329045769432867 L77.46448306595366 16.911431864070778 L79.31991978609626 16.555043146475953 L81.17535650623887 16.254361681096952 L83.03079322638148 16.004498063479105 L84.88622994652408 15.801104499246776 L86.74166666666667 15.64030191876185 L88.5971033868093 15.518618552595171 L90.45254010695189 15.432937919005326 L92.30797682709448 15.38045458277145 L94.1634135472371 15.358636363636379 L96.01885026737969 15.365191923432008 L97.87428698752228 15.398042859481961 L99.7297237076649 15.455299589921367 L101.5851604278075 15.535240443140253 L103.44059714795011 15.636293465423023 L105.2960338680927 15.757020543298495 L107.1514705882353 15.896103504139887 L109.00690730837792 16.05233191331223 L110.86234402852051 16.22459233109447 L112.71778074866313 16.411858829630546 L114.57321746880572 16.61318460080321 L116.42865418894831 16.82769451136994 L118.28409090909093 17.054578482925763 L120.13952762923353 17.293085592014222 L121.99496434937612 17.54251880061946 L123.85040106951874 17.80223023983632 L125.70583778966133 18.071616980137094 L127.56127450980395 18.350117230656622 L129.41671122994654 18.63720691757277 L131.27214795008913 18.932396598192554 L133.12758467023176 19.235228672936955 L134.98302139037435 19.54527486220752 L136.83845811051694 19.86213391923195 L138.69389483065956 20.185429553540416 L140.54933155080215 20.514808542781907 L142.40476827094477 20.849939013253163 L144.26020499108736 21.190508871808788 L146.11564171122996 21.536224373832795 L147.97107843137258 21.88680881369538 L149.82651515151517 22.242001325642775 L151.6819518716578 22.601555784411232 L153.53738859180038 22.965239796019432 L155.392825311943 23.332833770228603 L157.2482620320856 23.704130067063318 L159.10369875222818 24.078932210585833 L160.9591354723708 24.457054163822534 L162.8145721925134 24.8383196593644 L164.670008912656 25.22256158071923 L166.5254456327986 25.609621389983204 L168.3808823529412 25.999348597836047 L170.23631907308382 26.39160027225364 L172.0917557932264 26.786240582679795 L173.947192513369 27.183140376706035 L175.80262923351162 27.58217678658923 L177.65806595365422 27.983232863180433 L179.51350267379684 28.386197235065254 L181.36893939393943 28.790963790912713 L183.22437611408202 29.197431383210585 L185.07981283422464 29.605503551727054 L186.93524955436723 30.015088265182612 L188.79068627450982 30.42609767975091 L190.64612299465244 30.83844791312191 L192.50155971479504 31.2520588329715 L194.35699643493766 31.666853858777472 L196.21243315508025 32.082759776009595 L198.06786987522284 32.499706561803976 L199.92330659536546 32.917627221299426 L201.77874331550805 33.33645763388728 L203.63418003565067 33.756136408677776 L205.48961675579326 34.17660474854728 L207.34505347593586 34.597806322179224 L209.20049019607848 35.01968714355246 L211.05592691622107 35.442195458381605 L212.91136363636366 35.8652816370419 L214.76680035650628 36.28889807355415 L216.62223707664887 36.71299909023179 L218.4776737967915 37.13754084762502 L220.33311051693408 37.56248125942125 L222.18854723707668 37.987779911986934 L224.0439839572193 38.41339798825936 L225.8994206773619 38.83929819571597 L227.75485739750448 39.265444698168665 L229.6102941176471 39.69180305114992 L231.4657308377897 40.11834014067074 L233.3211675579323 40.545024125147734 L235.1766042780749 40.97182438031086 L237.0320409982175 41.398711446913524 L238.88747771836012 41.825656981081465 L240.7429144385027 42.252633707147254 L242.59835115864533 42.67961537282429 L244.45378787878792 43.106576706589294 L246.3092245989305 43.533493377145476 L248.16466131907313 43.96034195485021 L250.02009803921572 44.38709987499607 L251.87553475935832 44.81374540284463 L253.73097147950094 45.24025760031361 L255.58640819964353 45.666616294228845 L257.44184491978615 46.09280204605659 L259.2972816399287 46.51879612303463 L261.15271836007133 46.94458047062926 L263.00815508021395 47.37013768624723 L264.8635918003565 47.795450994136445 L266.71902852049914 48.22050422141325 L268.57446524064176 48.645281775158935 L270.4299019607843 49.06976862052966 L272.28533868092694 49.49395025982727 L274.14077540106956 49.91781271248402 L275.9962121212121 50.34134249591352 L277.85164884135474 50.76452660718718 L279.70708556149737 51.18735250549042 L281.56252228164 51.60980809532617 L283.41795900178255 52.0318817104245 L285.27339572192517 52.45356209832573 L287.1288324420678 52.874838405605374 L288.9842691622104 53.29570016370809 L290.839705882353 53.716137275363735 L292.6951426024956 54.13614000155678 L294.5505793226382 54.55569894902254 L296.4060160427808 54.97480505824802 L298.2614527629234 55.393449591951196 L300.116889483066 55.81162412401801 L301.9723262032086 56.229320528876826 L303.8277629233512 56.64653097128837 L305.6831996434938 57.0632478965353 L307.5386363636364 57.479464020989894 L309.394073083779 57.895172323047404 L311.2495098039216 58.31036603440356 L313.10494652406425 58.72503863166594 L314.9603832442068 59.13918382828223 L316.81581996434943 59.55279556677124 L318.67125668449205 59.965868011244595 L320.5266934046346 60.378395540206554 L322.38213012477723 60.79037273961927 L324.23756684491985 61.20179439622336 L326.0930035650624 61.612655491101464 L327.94844028520504 62.0229511934765 L329.80387700534766 62.4326768547333 L331.6593137254902 62.841828002654665 L333.51475044563284 63.25040033586413 L335.37018716577546 63.65838971846506 L337.2256238859181 64.06579217486967 L339.08106060606065 64.47260388480919 L340.93649732620327 64.87882117851967 L342.7919340463459 65.28444053209279 L344.64737076648845 65.68945856298944 L346.50280748663107 66.09387202570701 L348.3582442067737 66.49767780759436 L350.21368092691625 66.90087292480956 L352.0691176470589 67.30345451841492 L353.9245543672015 67.70541985060265 L355.77999108734406 68.10676630104774 L357.6354278074867 68.50749136338248 L359.4908645276293 68.90759264178735 L361.3463012477719 69.30706784769512 L363.2017379679145 69.70591479660266 L365.0571746880571 70.1041314049881 L366.9126114081997 70.50171568732634 L368.7680481283423 70.89866575320326 L370.6234848484849 71.29497980452203 L372.4789215686275 71.69065613279878 L374.3343582887701 72.08569311654492 L376.1897950089127 72.48008921873316 L378.04523172905533 72.87384298434267 L379.9006684491979 73.2669530379822 L381.7561051693405 73.65941808158794 L383.61154188948314 74.0512368921926 L385.46697860962576 74.44240831976413 L387.3224153297683 74.83293128511116 L389.17785204991094 75.22280477785347 L391.03328877005356 75.61202785445386 L392.8887254901961 76.00059963631082 L394.74416221033874 76.38851930790861 L396.59959893048136 76.77578611502418 L398.4550356506239 77.162399362987 L400.31047237076655 77.54835841499198 L402.16590909090917 77.93366269046294 L404.02134581105173 78.31831166346399 L405.87678253119435 78.70230486115872 L407.73221925133697 79.08564186231462 L409.5876559714796 79.4683222958518 L411.44309269162216 79.85034583943354 L413.2985294117648 80.23171221809883 L415.1539661319074 80.61242120293417 L417.00940285204996 80.99247260978393 L418.8648395721926 81.37186629799766 L420.7202762923352 81.75060216921429 L422.57571301247776 82.12868016618012 L424.4311497326204 82.50610027160076 L426.286586452763 82.88286250702635 L428.14202317290557 83.25896693176787 L429.9974598930482 83.63441364184337 L431.8528966131908 84.0092027689555 L433.70833333333337 84.383334479496 L435.563770053476 84.75680897357904 L437.4192067736186 85.12962648410104 L439.27464349376123 85.50178727582636 L441.1300802139038 85.87329164449892 L442.9855169340464 86.24413991597783 L444.84095365418904 86.61433244539654 L446.6963903743316 86.98386961634549 L448.5518270944742 87.35275184007673 L450.40726381461684 87.72097955473055 L452.2627005347594 88.08855322458231 L454.118137254902 88.4554733393104 L455.97357397504464 88.82174041328335 L457.8290106951872 89.18735498486689 L459.6844474153298 89.55231761574788 L461.53988413547245 89.91662889027867 L463.39532085561507 90.28028941483689 L465.25075757575763 90.64329981720272 L467.10619429590025 91.00566074595338 L468.9616310160429 91.36737286987295 L470.81706773618544 91.72843687737748 L472.67250445632806 92.08885347595577 L474.5279411764707 92.44862339162489 L476.38337789661324 92.80774736839845 L478.23881461675586 93.16622616777073 L480.0942513368985 93.52406056821303 L481.94968805704104 93.88125136468278 L483.80512477718366 94.23779936814651 L485.6605614973263 94.59370540511361 L487.5159982174689 94.94897031718335 L489.37143493761147 95.30359496060294 L491.2268716577541 95.65758020583621 L493.0823083778967 96.01092693714503 L494.9377450980393 96.36363605217963 L496.7931818181819 96.71570846157982 " fill="none" stroke-width="1.4" stroke="rgb(255,0,0)" stroke-opacity="1.0">
          </path>
        </g>
      </g>
      <g transform="translate(46.550000000000004 0.0 ) " clip-path="url(#XJwOWg)" clip-bounds-jfx="[rect (0.0, 0.0), (520.45, 337.89)]">
        <defs>
          <clipPath id="XJwOWg">
            <rect x="0.0" y="0.0" width="520.45" height="337.89">
            </rect>
          </clipPath>
        </defs>
        <g>
          <path d="M23.656818181818185 322.53136363636366 L23.656818181818185 322.53136363636366 L25.512254901960787 213.14882418570798 L29.223128342245992 130.29967301763708 L36.6448752228164 47.7212707095926 L51.48836898395723 38.78655832872221 L81.17535650623887 21.458631287034166 L140.54933155080215 35.26682314837933 L259.2972816399287 46.096777549434364 L496.7931818181819 91.04108831381268 " fill="none" stroke-width="2.0" stroke="rgb(17,142,216)" stroke-opacity="1.0">
          </path>
        </g>
      </g>
      <g transform="translate(46.550000000000004 0.0 ) " clip-path="url(#lOgeAI)" clip-bounds-jfx="[rect (0.0, 0.0), (520.45, 337.89)]">
        <defs>
          <clipPath id="lOgeAI">
            <rect x="0.0" y="0.0" width="520.45" height="337.89">
            </rect>
          </clipPath>
        </defs>
        <g>
          
          <g >
            <circle fill="#118ed8" stroke="#118ed8" stroke-opacity="0.0" stroke-width="0.0" cx="23.656818181818185" cy="322.53136363636366" r="3.3000000000000003" />
            <circle fill="#118ed8" stroke="#118ed8" stroke-opacity="0.0" stroke-width="0.0" cx="25.512254901960787" cy="213.14882418570798" r="3.3000000000000003" />
            <circle fill="#118ed8" stroke="#118ed8" stroke-opacity="0.0" stroke-width="0.0" cx="29.223128342245992" cy="130.29967301763708" r="3.3000000000000003" />
            <circle fill="#118ed8" stroke="#118ed8" stroke-opacity="0.0" stroke-width="0.0" cx="36.6448752228164" cy="47.7212707095926" r="3.3000000000000003" />
            <circle fill="#118ed8" stroke="#118ed8" stroke-opacity="0.0" stroke-width="0.0" cx="51.48836898395723" cy="38.78655832872221" r="3.3000000000000003" />
            <circle fill="#118ed8" stroke="#118ed8" stroke-opacity="0.0" stroke-width="0.0" cx="81.17535650623887" cy="21.458631287034166" r="3.3000000000000003" />
            <circle fill="#118ed8" stroke="#118ed8" stroke-opacity="0.0" stroke-width="0.0" cx="140.54933155080215" cy="35.26682314837933" r="3.3000000000000003" />
            <circle fill="#118ed8" stroke="#118ed8" stroke-opacity="0.0" stroke-width="0.0" cx="259.2972816399287" cy="46.096777549434364" r="3.3000000000000003" />
            <circle fill="#118ed8" stroke="#118ed8" stroke-opacity="0.0" stroke-width="0.0" cx="496.7931818181819" cy="91.04108831381268" r="3.3000000000000003" />
          </g>
        </g>
      </g>
    </g>
    <g class="plt-axis">
      <g transform="translate(17.0 178.945 ) rotate(-90.0 ) " class="plt-axis-title">
        <text text-anchor="middle" style="fill:#474747;">
        Throughput
        </text>
      </g>
    </g>
    <g class="plt-axis">
      <g transform="translate(329.77500000000003 381.0 ) " class="plt-axis-title">
        <text text-anchor="middle" dy="0.7em" style="fill:#474747;">
        Concurrency
        </text>
      </g>
    </g>
  </g>
</svg>